<svg width="20" height="20" viewBox="0 0 20 20" fill="none" xmlns="http://www.w3.org/2000/svg">
<g clip-path="url(#clip0_4123_65557)">
<path fill-rule="evenodd" clip-rule="evenodd" d="M9.23687 0.0622641C8.8855 0.18703 8.59378 0.578709 8.59378 0.925741V1.09387H5.33031H2.06679L1.97093 1.18976C1.83652 1.32414 1.84351 1.49805 1.98921 1.64375L2.10339 1.75793L4.40132 1.75863L6.69925 1.75933L6.2262 2.00765C4.63042 2.84531 3.42292 4.08082 2.63351 5.68371C2.3539 6.25144 2.07191 7.06672 1.96847 7.60625L1.89995 7.96355L1.66288 8.04859C1.4805 8.11402 1.37085 8.18937 1.18742 8.37543C0.899525 8.66742 0.801907 8.90672 0.803548 9.31652C0.805501 9.80476 1.09773 10.2632 1.5512 10.4893C1.74589 10.5864 1.82363 10.6024 2.10941 10.6039C2.38878 10.6053 2.47624 10.5893 2.66097 10.5027C3.09257 10.3003 3.36163 9.94797 3.43488 9.48926C3.47788 9.21992 3.41699 9.05687 3.24702 8.98648C3.14847 8.94566 3.10222 8.94539 3.00636 8.98512C2.86441 9.04391 2.82312 9.11332 2.77308 9.37722C2.7246 9.63277 2.60769 9.79515 2.40624 9.88664C2.20394 9.97848 2.05413 9.97859 1.85242 9.88699C1.55488 9.75183 1.40378 9.44016 1.48667 9.13238C1.54706 8.90812 1.77363 8.6859 1.9746 8.65387C2.05949 8.64035 2.1862 8.62047 2.2562 8.60972C2.42925 8.5832 2.48824 8.47711 2.55945 8.06426C2.98027 5.62465 4.49913 3.59082 6.69925 2.52082C7.41453 2.17297 8.06324 1.97082 8.94976 1.81953C9.1846 1.77945 9.23663 1.68515 9.24988 1.27535C9.26855 0.697616 9.30984 0.664178 10.0044 0.664178C10.7225 0.664178 10.7393 0.68121 10.741 1.41086C10.7421 1.89086 10.7343 1.95273 10.6612 2.04562C10.6168 2.10223 10.5451 2.14855 10.502 2.14855C10.3778 2.14855 10.1953 2.35703 10.1953 2.4989C10.1953 2.67277 10.3458 2.81262 10.5328 2.81262C10.9585 2.81262 11.4063 2.33476 11.4063 1.88035V1.75793H14.6515H17.8967L18.0109 1.64375C18.1566 1.49805 18.1635 1.32414 18.0291 1.18976L17.9333 1.09387H14.6698H11.4063V0.925741C11.4063 0.572616 11.1122 0.189256 10.7409 0.0582407C10.5168 -0.0208218 9.46288 -0.0179702 9.23687 0.0622641ZM13.6748 2.25148C13.4878 2.48918 13.5846 2.64914 14.1183 2.98387C15.2645 3.70277 16.3175 4.93933 16.891 6.24004C17.1594 6.84848 17.3228 7.39293 17.4382 8.06203C17.5101 8.47957 17.5694 8.58285 17.7536 8.61156C17.829 8.62332 17.9557 8.64316 18.0352 8.6557C18.226 8.68574 18.4545 8.91351 18.5134 9.13238C18.5963 9.44016 18.4452 9.75183 18.1476 9.88699C17.9459 9.97859 17.7961 9.97848 17.5938 9.88664C17.3924 9.79515 17.2755 9.63277 17.227 9.37722C17.1769 9.11332 17.1357 9.04391 16.9937 8.98512C16.8978 8.94539 16.8516 8.94566 16.753 8.98648C16.5831 9.05687 16.5222 9.21992 16.5652 9.48926C16.6384 9.94797 16.9075 10.3003 17.3391 10.5027C17.5238 10.5893 17.6113 10.6053 17.8907 10.6039C18.1764 10.6024 18.2542 10.5864 18.4489 10.4893C18.9023 10.2632 19.1946 9.80476 19.1965 9.31652C19.1982 8.90672 19.1005 8.66742 18.8126 8.37543C18.6292 8.18937 18.5196 8.11402 18.3372 8.04859L18.1001 7.96355L18.0316 7.60625C17.8784 6.80687 17.4476 5.72945 16.9796 4.97469C16.4651 4.14508 15.7203 3.32812 14.9538 2.75273C14.1397 2.14156 13.8504 2.0282 13.6748 2.25148ZM8.55511 4.54371C8.48015 4.56758 8.34831 4.65926 8.26214 4.7475C8.13421 4.87848 5.6164 8.90121 5.36574 9.37512C5.30933 9.48172 5.29339 9.59785 5.2932 9.90246L5.293 10.2931L6.01027 11.9115C6.63394 13.3188 6.71945 13.5354 6.66566 13.5717C6.63163 13.5946 6.5314 13.6573 6.44285 13.7111C6.25425 13.8255 6.04054 14.101 5.95378 14.3416C5.87226 14.5677 5.83945 15.1954 5.89402 15.4859C6.00722 16.0886 6.42417 16.5084 6.99992 16.5994C7.10398 16.6159 7.20035 16.6405 7.21402 16.6542C7.22769 16.6679 7.15476 17.3664 7.05195 18.2064L6.86495 19.7336L6.94234 19.8376C7.09964 20.0489 7.40562 20.0343 7.49679 19.8112C7.52019 19.754 7.63574 18.928 7.75359 17.9758C8.01788 15.8402 8.04995 16.0025 7.35597 15.9634C6.81847 15.9331 6.5887 15.7309 6.53777 15.2433C6.48546 14.7428 6.59257 14.4178 6.87199 14.2296L7.00378 14.1407H10H12.9963L13.1281 14.2296C13.4075 14.4178 13.5146 14.7428 13.4623 15.2433C13.4311 15.5421 13.3147 15.7477 13.1107 15.8646L12.9493 15.9571L11.1133 15.967C10.1035 15.9724 9.23667 15.9862 9.18691 15.9977C9.13085 16.0106 9.07495 16.07 9.03992 16.1539C8.92398 16.4312 9.12011 16.6407 9.49574 16.6407H9.64382L9.65589 17.6923C9.668 18.7439 9.668 18.744 9.76269 18.8447C9.89316 18.9835 10.1069 18.9835 10.2374 18.8447C10.3321 18.744 10.3321 18.7438 10.3441 17.695L10.3562 16.6461L11.7113 16.632C13.1993 16.6164 13.2271 16.6125 13.5723 16.3645C13.9229 16.1127 14.0934 15.7664 14.1285 15.2345C14.1819 14.4254 13.9392 13.896 13.3789 13.5996L13.1836 13.4962L10.308 13.4855L7.43234 13.4747L6.68492 11.7832C5.8323 9.85347 5.83667 9.86973 6.06574 9.49C6.86507 8.16488 8.73867 5.18234 8.78222 5.16562C8.81335 5.15371 8.86714 5.16183 8.90183 5.18367C8.95812 5.21918 8.96699 5.44043 8.98441 7.2441L9.00394 9.26476L9.11355 9.35898C9.25675 9.48215 9.42843 9.48152 9.55257 9.35734L9.64847 9.26148V7.18785C9.64847 5.22402 9.64452 5.10652 9.57394 4.96926C9.37761 4.58758 8.96218 4.41406 8.55511 4.54371ZM10.8801 4.55246C10.6909 4.62433 10.5255 4.77617 10.4261 4.96926C10.3555 5.10656 10.3516 5.2243 10.3516 7.20437V9.29453L10.5567 9.4468C10.8196 9.64199 10.8779 9.70926 10.9754 9.92965C11.2117 10.4638 11.0226 11.0627 10.5375 11.3171C10.3601 11.4101 10.2868 11.4248 10 11.4248C9.71667 11.4248 9.63937 11.4097 9.47269 11.3218C9.36527 11.2652 9.23867 11.1773 9.1914 11.1266C9.07449 11.0011 8.95773 10.724 8.92351 10.4909C8.86929 10.1211 8.55515 9.98578 8.34124 10.24C8.24683 10.3522 8.24031 10.3815 8.26523 10.5818C8.35937 11.3387 8.81101 11.8566 9.55081 12.0559C10.1441 12.2158 10.9109 11.9968 11.3093 11.5536C11.7721 11.0388 11.8792 10.2606 11.5754 9.61847C11.5205 9.50254 11.3722 9.29703 11.2457 9.16183L11.0157 8.91594V7.08C11.0157 5.12691 11.0155 5.12805 11.1982 5.1632C11.2549 5.17414 12.9577 7.86519 13.8873 9.41293C14.1585 9.86445 14.1546 9.88867 13.6129 11.1093C13.3407 11.7229 13.1641 12.1707 13.1641 12.2476C13.1641 12.441 13.2794 12.557 13.4719 12.557C13.5648 12.557 13.6574 12.5314 13.6928 12.4959C13.7544 12.4344 14.595 10.5733 14.6866 10.2961C14.7614 10.0694 14.7218 9.55211 14.6137 9.34246C14.4794 9.08234 11.9234 4.95953 11.802 4.80754C11.5907 4.54277 11.1944 4.43312 10.8801 4.55246ZM12.4362 17.7802C12.2507 17.87 12.2455 17.9413 12.3568 18.8639C12.4137 19.3355 12.4803 19.7653 12.5047 19.8191C12.6033 20.0354 12.9028 20.0457 13.0573 19.838C13.1343 19.7347 13.1342 19.7334 13.0278 18.8615C12.9692 18.3813 12.9055 17.9586 12.8861 17.922C12.7996 17.7586 12.6065 17.6977 12.4362 17.7802Z" fill="white"/>
</g>
<defs>
<clipPath id="clip0_4123_65557">
<rect width="20" height="20" fill="white"/>
</clipPath>
</defs>
</svg>
