<svg width="160" height="160" viewBox="0 0 160 160" fill="none" xmlns="http://www.w3.org/2000/svg">
<g opacity="0.2">
<path d="M98.4747 93.1505C99.1579 87.9928 95.532 83.7377 91.0008 81.1806C86.4696 78.6235 81.2132 77.7678 76.2088 76.3457C71.4888 75.0046 66.7944 73.0481 63.2984 69.6049C59.8024 66.1617 57.7051 60.9857 58.962 56.2427C59.2776 55.0517 59.8414 53.8555 60.8641 53.1685C61.8868 52.4814 63.4481 52.499 64.211 53.4664C65.8356 55.5269 62.6699 59.2171 64.6523 60.9358C65.1073 61.3304 65.7332 61.4757 66.2043 61.851C67.4577 62.8507 67.052 64.7941 67.2289 66.3877C67.579 69.5393 70.5342 71.7278 73.4366 73.0046C77.324 74.715 81.5355 75.5189 85.6596 76.5326C89.7838 77.5464 93.9422 78.8235 97.378 81.3198C100.814 83.8161 103.795 87.724 103.771 91.9707C103.764 93.1576 103.613 94.6168 102.869 95.5406C102.124 96.4645 101.175 96.6564 100.101 96.1512C99.027 95.6456 98.2756 94.8641 98.4747 93.1505Z" fill="#FF9B21"/>
<g opacity="0.8">
<path d="M98.4747 93.1504C99.1579 87.9927 95.532 83.7376 91.0008 81.1805C86.4696 78.6234 81.2132 77.7677 76.2088 76.3456C71.4888 75.0045 66.7944 73.048 63.2984 69.6048C59.8024 66.1616 57.7051 60.9856 58.962 56.2426C59.2776 55.0515 59.8414 53.8554 60.8641 53.1683C61.8868 52.4813 63.4481 52.4989 64.211 53.4663C65.8356 55.5267 62.6699 59.217 64.6523 60.9357C65.1073 61.3302 65.7332 61.4755 66.2043 61.8509C67.4577 62.8506 67.052 64.7939 67.2289 66.3875C67.579 69.5392 70.5342 71.7277 73.4366 73.0045C77.324 74.7149 81.5355 75.5187 85.6596 76.5325C89.7838 77.5463 93.9422 78.8234 97.378 81.3197C100.814 83.816 103.795 87.7238 103.771 91.9706C103.764 93.1574 103.613 94.6166 102.869 95.5405C102.124 96.4643 101.175 96.6563 100.101 96.151C99.027 95.6454 98.2756 94.864 98.4747 93.1504Z" fill="white"/>
</g>
<path d="M76.5528 52.1511C76.3896 50.2407 77.8127 48.5774 79.4312 47.6855C81.0498 46.7937 82.9035 46.4315 84.5723 45.6404C88.7154 43.6763 91.3499 39.0539 91.5445 34.3124C91.7391 29.571 89.684 24.8324 86.4683 21.3499C85.1618 19.9348 83.5544 18.4523 83.5352 16.5217C83.5151 14.5073 85.469 12.9198 87.4207 12.9454C89.3723 12.971 91.1707 14.2772 92.3391 15.9207C93.5074 17.5643 94.1538 19.5227 94.7829 21.4455C94.3346 20.6417 95.2552 19.6459 96.1423 19.7316C97.0293 19.8174 97.7295 20.5572 98.277 21.2942C100.628 24.4596 101.792 28.5262 101.467 32.4439C101.143 36.3617 99.334 40.09 96.5077 42.6663C93.3509 45.5438 89.173 46.8939 85.124 48.1716C82.3064 49.0606 79.4888 49.9499 76.6709 50.8388" fill="#FF9B21"/>
<g opacity="0.8">
<path d="M76.5519 52.151C76.3887 50.2406 77.8117 48.5773 79.4302 47.6854C81.0488 46.7936 82.9026 46.4313 84.5714 45.6403C88.7144 43.6761 91.349 39.0537 91.5435 34.3123C91.7381 29.5709 89.683 24.8323 86.4674 21.3497C85.1608 19.9347 83.5535 18.4521 83.5343 16.5216C83.5141 14.5072 85.468 12.9197 87.4197 12.9453C89.3714 12.9709 91.1698 14.2771 92.3381 15.9206C93.5064 17.5641 94.1528 19.5225 94.7819 21.4454C94.3336 20.6416 95.2543 19.6457 96.1413 19.7315C97.0283 19.8173 97.7285 20.5571 98.276 21.2941C100.627 24.4595 101.791 28.5261 101.466 32.4438C101.142 36.3616 99.333 40.0899 96.5067 42.6662C93.3499 45.5437 89.172 46.8937 85.1231 48.1715C82.3055 49.0605 79.4879 49.9497 76.6699 50.8387" fill="white"/>
</g>
<path d="M74.2015 12.0076C73.3618 12.3609 72.901 13.4246 73.2175 14.279C73.5343 15.1334 74.5769 15.6396 75.4441 15.3602C76.3113 15.0809 76.8623 14.061 76.621 13.1826C76.3794 12.3039 75.3845 11.7094 74.4962 11.9126" fill="#FF9B21"/>
<g opacity="0.8">
<path d="M74.2015 12.0079C73.3618 12.3612 72.901 13.4249 73.2175 14.2793C73.5343 15.1337 74.5769 15.6399 75.4441 15.3606C76.3113 15.0812 76.8623 14.0614 76.621 13.183C76.3794 12.3042 75.3845 11.7097 74.4962 11.9129" fill="white"/>
</g>
<path d="M84.6261 135.309C83.59 133.161 84.4933 130.483 86.1439 128.762C87.7945 127.04 90.0492 126.058 92.2319 125.096C97.0492 122.974 102.15 120.445 104.599 115.786C105.425 114.215 105.896 112.485 106.361 110.772C107.26 107.456 108.103 103.69 106.295 100.768C105.775 99.9274 104.993 99.1796 104.019 99.0071C102.912 98.8103 101.772 99.4205 101.089 100.315C100.406 101.209 100.113 102.342 99.9724 103.459C99.7036 105.582 99.9263 107.743 99.7029 109.872C99.4796 112.001 98.7007 114.227 96.9445 115.451C94.8121 116.938 91.7685 116.604 89.6972 118.175C88.0245 119.444 87.3884 121.644 86.0802 123.285C84.9807 124.665 83.4425 125.608 82.0332 126.669C80.6239 127.731 79.261 129.026 78.782 130.724C78.2847 132.487 78.9065 134.516 80.3071 135.698C81.7077 136.879 83.8117 137.151 85.4668 136.364" fill="#FF9B21"/>
<g opacity="0.8">
<path d="M84.6261 135.309C83.59 133.16 84.4933 130.483 86.1439 128.761C87.7945 127.04 90.0492 126.057 92.2319 125.096C97.0492 122.974 102.15 120.445 104.599 115.786C105.425 114.215 105.896 112.485 106.361 110.772C107.26 107.455 108.103 103.689 106.295 100.767C105.775 99.9272 104.993 99.1793 104.019 99.0069C102.912 98.8101 101.772 99.4203 101.089 100.315C100.406 101.209 100.113 102.342 99.9724 103.458C99.7036 105.582 99.9263 107.743 99.7029 109.871C99.4796 112 98.7007 114.227 96.9445 115.451C94.8121 116.938 91.7685 116.604 89.6972 118.175C88.0245 119.444 87.3884 121.643 86.0802 123.285C84.9807 124.665 83.4425 125.608 82.0332 126.669C80.6239 127.73 79.261 129.025 78.782 130.723C78.2847 132.487 78.9065 134.516 80.3071 135.697C81.7077 136.879 83.8117 137.151 85.4668 136.364" fill="white"/>
</g>
<path d="M52.5841 26.8339C50.8874 25.5754 49.8522 23.4717 49.8897 21.3597C49.9274 19.2477 51.0372 17.1821 52.7777 15.985C53.7617 15.3082 54.9284 14.8941 55.8033 14.081C56.5812 13.3581 57.0871 12.3552 57.9575 11.7472C59.0391 10.992 60.6081 11.0253 61.6567 11.8256C62.705 12.6262 63.1508 14.1312 62.7069 15.3734C62.3057 16.4966 61.2977 17.3171 60.8762 18.4326C60.4228 19.6336 60.7149 20.9789 60.5463 22.2515C60.3392 23.8154 59.3895 25.2643 58.0378 26.0778C56.6861 26.8912 54.961 27.0522 53.4823 26.5027" fill="#FF9B21"/>
<g opacity="0.8">
<path d="M52.5841 26.8337C50.8874 25.5752 49.8522 23.4715 49.8897 21.3595C49.9274 19.2475 51.0372 17.1819 52.7777 15.9848C53.7617 15.308 54.9284 14.8939 55.8033 14.0808C56.5812 13.3579 57.0871 12.355 57.9575 11.747C59.0391 10.9918 60.6081 11.0251 61.6567 11.8254C62.705 12.6261 63.1508 14.131 62.7069 15.3733C62.3057 16.4965 61.2977 17.3169 60.8762 18.4325C60.4228 19.6334 60.7149 20.9787 60.5463 22.2513C60.3392 23.8152 59.3895 25.2641 58.0378 26.0776C56.6861 26.891 54.961 27.052 53.4823 26.5025" fill="white"/>
</g>
<path d="M54.9067 29.813H54.4382C53.4814 29.813 52.7061 29.0373 52.7061 28.0808V19.9736H56.6389V28.0808C56.6389 29.0373 55.8635 29.813 54.9067 29.813Z" fill="#FF9B21"/>
<path d="M52.7061 19.9741L54.6725 16.3674L56.6389 19.9741H52.7061Z" fill="#FFBE9D"/>
<path d="M53.8936 17.7959C53.8936 17.7959 54.4907 18.6938 55.4513 17.7959L54.6724 16.3674L53.8936 17.7959Z" fill="#FF9B21"/>
<path d="M56.6944 27.6856C56.6944 27.7294 55.7993 27.7649 54.6953 27.7649C53.591 27.7649 52.6963 27.7294 52.6963 27.6856C52.6963 27.6417 53.5913 27.6062 54.6953 27.6062C55.7993 27.6062 56.6944 27.6417 56.6944 27.6856Z" fill="#263238"/>
<path d="M56.6541 27.0829C56.6541 27.1267 55.777 27.1623 54.6954 27.1623C53.6131 27.1623 52.7363 27.1267 52.7363 27.0829C52.7363 27.0391 53.6131 27.0035 54.6954 27.0035C55.7773 27.0035 56.6541 27.0391 56.6541 27.0829Z" fill="#263238"/>
<path d="M53.8606 20.0312C53.9045 20.0312 53.94 21.6011 53.94 23.5368C53.94 25.4734 53.9045 27.0427 53.8606 27.0427C53.8168 27.0427 53.7813 25.4734 53.7813 23.5368C53.7812 21.6008 53.8168 20.0312 53.8606 20.0312Z" fill="#FAFAFA"/>
<path d="M55.4534 20.0312C55.4972 20.0312 55.5327 21.6011 55.5327 23.5368C55.5327 25.4734 55.4972 27.0427 55.4534 27.0427C55.4095 27.0427 55.374 25.4734 55.374 23.5368C55.374 21.6008 55.4095 20.0312 55.4534 20.0312Z" fill="#FAFAFA"/>
</g>
<path d="M86.8736 130.79L104.741 131.554L105.172 132.595L93.4621 151.603L72.3223 150.987L86.8736 130.79Z" fill="#263238"/>
<path d="M71.5225 149.133L92.7893 150.348L103.897 133.11L96.0975 133.744L76.3557 140.696L71.5225 149.133Z" fill="#E0E0E0"/>
<path d="M68.5334 147.854L88.0626 148.163C87.2514 145.664 89.1647 142.145 91.79 140.962C93.5302 140.177 96.8047 139.161 98.4943 138.294C101.705 136.647 104.606 133.528 104.352 130.852L96.3314 130.597L86.0943 130.201C85.2383 132.741 83.4073 134.405 80.6236 135.405C78.1324 136.301 75.2972 136.299 72.8674 137.316C68.9564 138.954 67.077 144.261 68.5334 147.854Z" fill="#EBEBEB"/>
<path d="M68.5341 147.854C68.5341 147.854 68.5155 147.812 68.4851 147.728C68.4534 147.639 68.4093 147.514 68.3514 147.351C68.2832 147.188 68.2435 146.972 68.185 146.719C68.1149 146.468 68.0915 146.167 68.0502 145.83C68.0006 145.154 68.0077 144.309 68.2051 143.347C68.4038 142.389 68.7814 141.309 69.4576 140.248C69.633 139.987 69.8016 139.712 70.0198 139.462C70.1258 139.336 70.225 139.201 70.3395 139.076C70.4586 138.956 70.5786 138.834 70.7002 138.711C70.8173 138.582 70.952 138.47 71.0906 138.36C71.2288 138.25 71.3626 138.13 71.5088 138.024C71.815 137.831 72.1117 137.607 72.4595 137.457C73.8128 136.774 75.4294 136.487 77.113 136.182C77.9571 136.028 78.8262 135.868 79.6989 135.628C80.5677 135.381 81.4429 135.052 82.2733 134.591C82.6906 134.366 83.0938 134.102 83.4749 133.803C83.8589 133.508 84.2189 133.172 84.5411 132.796C85.1978 132.054 85.6918 131.152 86.025 130.177L86.0429 130.125L86.0976 130.127C88.8163 130.231 91.6701 130.34 94.6275 130.452C97.585 130.569 100.648 130.649 103.783 130.754C103.976 130.76 104.168 130.766 104.355 130.772L104.426 130.775L104.432 130.844C104.486 131.463 104.373 132.078 104.174 132.65C104.083 132.94 103.943 133.209 103.816 133.482C103.665 133.742 103.524 134.007 103.349 134.25C102.683 135.244 101.83 136.076 100.93 136.807C100.021 137.533 99.0362 138.136 98.0099 138.611C96.9795 139.074 95.9366 139.452 94.9149 139.83C93.8938 140.208 92.8835 140.566 91.9245 140.983C91.4541 141.202 91.0022 141.452 90.6109 141.78C90.4032 141.929 90.2301 142.116 90.0403 142.282C89.8733 142.471 89.6874 142.642 89.5389 142.843C88.9082 143.617 88.4343 144.494 88.1731 145.41C87.8967 146.32 87.8659 147.283 88.1248 148.142L88.1511 148.229L88.0621 148.228C82.1469 148.123 77.2666 148.036 73.8592 147.976C72.1613 147.941 70.8314 147.914 69.9206 147.896C69.471 147.884 69.1258 147.876 68.8874 147.87C68.6541 147.863 68.5341 147.854 68.5341 147.854C68.5341 147.854 68.6544 147.849 68.888 147.85C69.1264 147.851 69.4717 147.853 69.9213 147.856C70.8323 147.867 72.1622 147.882 73.8605 147.901C77.2678 147.948 82.1485 148.015 88.0643 148.097L88.0016 148.182C87.7302 147.292 87.7626 146.301 88.0426 145.372C88.3075 144.436 88.7882 143.543 89.4291 142.754C89.5802 142.548 89.769 142.373 89.9395 142.181C90.1325 142.011 90.3091 141.82 90.5213 141.668C90.92 141.332 91.3859 141.073 91.8653 140.849C92.8323 140.427 93.8419 140.068 94.8627 139.689C95.8832 139.31 96.9251 138.931 97.9459 138.471C98.9587 138.001 99.9344 137.404 100.832 136.685C101.722 135.962 102.564 135.138 103.218 134.162C103.39 133.924 103.528 133.663 103.676 133.409C103.8 133.143 103.936 132.88 104.024 132.598C104.217 132.043 104.325 131.451 104.274 130.86L104.35 130.932C104.163 130.926 103.971 130.92 103.778 130.914C100.643 130.809 97.5795 130.727 94.6218 130.609C91.6643 130.493 88.8106 130.381 86.0919 130.275L86.1642 130.225C85.8243 131.215 85.3187 132.135 84.6483 132.89C84.319 133.272 83.9517 133.614 83.5607 133.914C83.1722 134.217 82.7626 134.484 82.3389 134.711C81.496 135.176 80.6118 135.507 79.7334 135.753C78.8528 135.993 77.9795 136.152 77.1347 136.303C75.4502 136.603 73.8426 136.886 72.5075 137.553C72.1648 137.7 71.872 137.92 71.569 138.108C71.4243 138.212 71.2922 138.33 71.1552 138.438C71.0179 138.546 70.8845 138.656 70.7686 138.782C70.648 138.904 70.5286 139.023 70.4106 139.142C70.2966 139.264 70.1981 139.397 70.0928 139.522C69.8758 139.767 69.7078 140.039 69.5328 140.296C68.8579 141.343 68.4768 142.412 68.2726 143.362C68.0701 144.316 68.0557 145.154 68.0973 145.827C68.1347 146.162 68.1539 146.462 68.2198 146.712C68.2742 146.965 68.3098 147.18 68.3741 147.345C68.4269 147.509 68.4672 147.635 68.4963 147.724C68.5232 147.809 68.5341 147.854 68.5341 147.854Z" fill="#263238"/>
<path d="M91.5811 130.518C91.567 130.514 91.6067 130.392 91.6253 130.169C91.6422 129.947 91.6275 129.614 91.472 129.246C91.3216 128.883 91.0221 128.481 90.5488 128.257C90.0826 128.033 89.4662 127.986 88.903 128.198C88.3357 128.406 87.927 128.869 87.7142 129.343C87.4928 129.82 87.4627 130.312 87.5264 130.703C87.5904 131.097 87.7398 131.394 87.8602 131.582C87.9811 131.772 88.0714 131.862 88.0614 131.871C88.0563 131.877 87.9504 131.802 87.8096 131.617C87.6698 131.434 87.4976 131.134 87.416 130.723C87.3347 130.316 87.3536 129.792 87.5808 129.283C87.7984 128.777 88.2333 128.276 88.8474 128.05C89.4538 127.821 90.1136 127.876 90.6134 128.126C91.1226 128.376 91.432 128.817 91.5766 129.205C91.727 129.598 91.7238 129.949 91.687 130.176C91.6678 130.291 91.6448 130.378 91.6218 130.434C91.6 130.491 91.5862 130.52 91.5811 130.518Z" fill="#263238"/>
<path d="M94.6407 130.518C94.6266 130.514 94.6663 130.392 94.6848 130.169C94.7018 129.947 94.6871 129.614 94.5316 129.246C94.3812 128.883 94.0816 128.481 93.6084 128.257C93.1421 128.033 92.5261 127.986 91.9626 128.198C91.3952 128.406 90.9866 128.869 90.7738 129.343C90.552 129.82 90.5223 130.312 90.586 130.703C90.65 131.097 90.7994 131.394 90.9197 131.582C91.0407 131.772 91.1309 131.862 91.121 131.871C91.1159 131.877 91.01 131.802 90.8692 131.617C90.7293 131.434 90.5572 131.134 90.4756 130.723C90.3943 130.316 90.4132 129.792 90.6404 129.283C90.858 128.777 91.2928 128.276 91.9069 128.05C92.5133 127.821 93.1732 127.876 93.673 128.126C94.1821 128.376 94.4916 128.817 94.6362 129.205C94.7866 129.598 94.7834 129.949 94.7466 130.176C94.7274 130.291 94.7044 130.378 94.6813 130.434C94.6596 130.491 94.6458 130.52 94.6407 130.518Z" fill="#263238"/>
<path d="M96.9659 130.677C96.9515 130.673 96.9844 130.55 96.9902 130.326C96.9947 130.103 96.9611 129.772 96.7848 129.413C96.6139 129.06 96.2923 128.674 95.8072 128.478C95.3288 128.28 94.7112 128.268 94.1608 128.512C93.6062 128.752 93.2241 129.237 93.0385 129.722C92.8443 130.211 92.8424 130.704 92.9278 131.091C93.0142 131.481 93.18 131.768 93.3108 131.949C93.4424 132.132 93.5377 132.217 93.5281 132.227C93.5233 132.233 93.4132 132.164 93.2622 131.988C93.1124 131.813 92.9233 131.523 92.8187 131.117C92.7144 130.715 92.7035 130.191 92.9019 129.67C93.0904 129.153 93.4961 128.627 94.0964 128.367C94.6888 128.105 95.3508 128.122 95.8638 128.343C96.386 128.564 96.7204 128.987 96.8865 129.366C97.059 129.75 97.0756 130.1 97.052 130.329C97.0395 130.445 97.0212 130.533 97.0014 130.591C96.9832 130.649 96.971 130.678 96.9659 130.677Z" fill="#263238"/>
<path d="M99.4588 130.818C99.4441 130.816 99.4703 130.691 99.4643 130.466C99.4569 130.244 99.406 129.915 99.2108 129.566C99.0214 129.222 98.6799 128.854 98.1849 128.684C97.6969 128.512 97.0793 128.532 96.5427 128.805C96.0015 129.074 95.6457 129.578 95.486 130.073C95.318 130.572 95.342 131.064 95.4479 131.445C95.5548 131.831 95.7356 132.109 95.8758 132.282C96.0169 132.458 96.1164 132.538 96.1075 132.548C96.103 132.554 95.9894 132.491 95.8294 132.323C95.6703 132.157 95.4665 131.877 95.3404 131.477C95.215 131.081 95.1766 130.559 95.3468 130.028C95.5078 129.501 95.8851 128.955 96.4707 128.664C97.0483 128.37 97.7103 128.353 98.2342 128.546C98.7676 128.739 99.1235 129.144 99.3097 129.514C99.5023 129.888 99.5375 130.237 99.5257 130.467C99.5193 130.583 99.5059 130.672 99.4892 130.73C99.4748 130.79 99.4643 130.82 99.4588 130.818Z" fill="#263238"/>
<path d="M101.956 130.761C101.941 130.758 101.964 130.633 101.952 130.409C101.939 130.187 101.878 129.859 101.674 129.516C101.475 129.177 101.123 128.819 100.623 128.663C100.131 128.505 99.5139 128.543 98.9853 128.83C98.4518 129.115 98.1104 129.628 97.9648 130.127C97.8109 130.63 97.8487 131.122 97.9655 131.5C98.0829 131.882 98.2717 132.155 98.4166 132.325C98.5626 132.497 98.6643 132.573 98.6557 132.584C98.6515 132.591 98.536 132.531 98.3712 132.367C98.2077 132.205 97.9959 131.931 97.8586 131.535C97.7219 131.143 97.6688 130.622 97.8243 130.086C97.9703 129.555 98.3325 128.998 98.9094 128.691C99.4787 128.381 100.14 128.345 100.669 128.524C101.208 128.701 101.575 129.096 101.772 129.46C101.975 129.83 102.02 130.177 102.014 130.407C102.011 130.523 102 130.612 101.985 130.672C101.971 130.731 101.962 130.762 101.956 130.761Z" fill="#263238"/>
<path d="M104.061 131.04C104.046 131.037 104.074 130.913 104.07 130.689C104.065 130.466 104.018 130.136 103.827 129.786C103.642 129.439 103.305 129.067 102.812 128.891C102.326 128.713 101.708 128.727 101.168 128.993C100.624 129.256 100.262 129.755 100.097 130.248C99.9229 130.745 99.9415 131.238 100.043 131.62C100.145 132.007 100.323 132.287 100.461 132.463C100.6 132.64 100.699 132.72 100.689 132.731C100.685 132.737 100.572 132.673 100.414 132.503C100.257 132.334 100.056 132.052 99.9348 131.651C99.8141 131.253 99.7815 130.731 99.9581 130.202C100.125 129.677 100.509 129.135 101.098 128.851C101.679 128.564 102.342 128.554 102.863 128.754C103.394 128.953 103.746 129.362 103.927 129.734C104.116 130.111 104.147 130.459 104.132 130.689C104.125 130.805 104.11 130.894 104.093 130.953C104.077 131.011 104.066 131.041 104.061 131.04Z" fill="#263238"/>
<path d="M113.265 65.489C112.425 65.4654 111.533 65.4954 110.62 65.6087C105.106 66.2919 100.997 71.0282 101.008 76.5844C101.011 78.2023 101.184 80.0129 101.692 81.8158C103.23 87.2734 103.705 92.0855 103.528 94.4279L108.679 97.1969C108.679 97.1969 111.064 93.771 113.367 92.2929C115.67 90.8151 123.339 86.8647 126.375 82.8033C128.332 80.1847 128.708 74.8113 124.042 70.1118C121.192 67.2404 117.31 65.603 113.265 65.489Z" fill="#77A8AF"/>
<path d="M101.088 100.388L105.742 102.903L102.712 106.75L99.6104 105.34L101.088 100.388Z" fill="#455A64"/>
<path d="M101.313 100.543C101.272 100.528 101.734 99.1468 102.344 97.4585C102.955 95.7696 103.484 94.4128 103.525 94.4278C103.567 94.4428 103.105 95.8236 102.494 97.5126C101.883 99.2009 101.354 100.558 101.313 100.543Z" fill="#263238"/>
<path d="M105.449 102.714C105.411 102.691 106.14 101.387 107.077 99.8001C108.014 98.2129 108.805 96.9444 108.843 96.9668C108.88 96.9892 108.151 98.2935 107.214 99.8807C106.277 101.468 105.486 102.736 105.449 102.714Z" fill="#263238"/>
<g opacity="0.4">
<path d="M114.815 65.6357C114.606 65.6472 112.045 68.6444 110.913 70.6728C107.102 77.4972 106.931 84.1391 105.873 91.8834C105.722 92.9896 105.172 95.3749 105.183 95.3196C105.747 95.7615 107.642 96.6412 107.642 96.6412C107.642 96.6412 109.429 94.4844 110.139 93.3996C112.982 89.0556 116.069 85.6693 118.504 81.0834C120.938 76.4972 123.281 72.4306 121.028 67.7525C121.028 67.7525 117.126 65.5061 114.815 65.6357Z" fill="black"/>
</g>
<path d="M126.393 83.49C126.39 83.4913 126.367 83.4408 126.327 83.3425C126.284 83.2452 126.235 83.0955 126.149 82.9099C125.981 82.5377 125.706 82.0017 125.25 81.3972C124.792 80.7982 124.153 80.1214 123.273 79.5531C122.408 78.9716 121.294 78.5112 120.031 78.3528L120 78.3489L119.982 78.3243C119.39 77.5259 118.711 76.7022 117.903 75.9377C117.096 75.1755 116.151 74.474 115.065 73.9835C113.98 73.4996 112.812 73.2852 111.71 73.3441C110.608 73.3998 109.574 73.7502 108.775 74.3224L108.728 74.3556L108.685 74.3179C107.729 73.4766 106.583 73.0417 105.55 72.9246C104.511 72.8046 103.588 72.996 102.885 73.2644C102.176 73.5342 101.676 73.8772 101.353 74.1262C101.193 74.252 101.073 74.3544 100.994 74.426C100.915 74.4971 100.873 74.5323 100.87 74.5297C100.867 74.5268 100.905 74.4862 100.979 74.4094C101.052 74.332 101.168 74.2235 101.326 74.091C101.642 73.8289 102.139 73.4702 102.854 73.1848C103.563 72.9009 104.501 72.6939 105.564 72.8065C106.619 72.9163 107.794 73.3518 108.78 74.2104L108.691 74.2059C109.512 73.6123 110.574 73.2484 111.702 73.1892C112.83 73.1262 114.022 73.3441 115.13 73.8382C116.238 74.3377 117.195 75.052 118.009 75.8248C118.825 76.5998 119.506 77.4331 120.097 78.2388L120.048 78.2104C121.336 78.3784 122.466 78.8555 123.339 79.4536C124.226 80.0385 124.865 80.7326 125.318 81.3454C125.77 81.964 126.035 82.5112 126.191 82.8913C126.271 83.0808 126.313 83.234 126.349 83.3339C126.382 83.436 126.397 83.4888 126.393 83.49Z" fill="#263238"/>
<path d="M116.816 90.2895C116.785 90.3004 116.791 89.8239 116.372 89.1702C116.16 88.8527 115.844 88.4921 115.383 88.2207C114.932 87.9414 114.329 87.7538 113.678 87.8169L113.614 87.823L113.604 87.759C113.501 87.0972 113.226 86.3932 112.759 85.7692C112.293 85.1484 111.642 84.5945 110.847 84.2857C110.195 84.0258 109.501 83.935 108.849 83.9794C108.196 84.0262 107.587 84.2114 107.07 84.4822L107.021 84.5078L106.983 84.4674C106.468 83.9158 105.804 83.6063 105.194 83.4985C104.583 83.375 104.025 83.437 103.591 83.5487C102.71 83.7887 102.335 84.214 102.318 84.1807C102.315 84.1778 102.338 84.1542 102.386 84.1113C102.435 84.0703 102.502 84.0015 102.604 83.9305C102.804 83.7852 103.123 83.597 103.568 83.4662C104.01 83.3394 104.583 83.2639 105.216 83.3814C105.847 83.4831 106.543 83.7951 107.089 84.3705L107.002 84.3558C107.535 84.0713 108.164 83.8758 108.839 83.8249C109.512 83.7759 110.23 83.8684 110.907 84.1378C111.731 84.4588 112.405 85.0345 112.882 85.678C113.362 86.325 113.639 87.054 113.738 87.7385L113.664 87.6809C114.352 87.6214 114.979 87.8284 115.441 88.1254C115.914 88.415 116.231 88.7945 116.439 89.127C116.645 89.4646 116.736 89.7647 116.78 89.9695C116.802 90.0719 116.806 90.1532 116.813 90.2066C116.819 90.261 116.82 90.2889 116.816 90.2895Z" fill="#263238"/>
<path d="M104.843 104.115C104.831 104.124 104.793 104.051 104.672 104.002C104.552 103.951 104.359 103.945 104.128 104.018C104.01 104.05 103.876 104.093 103.717 104.094C103.557 104.096 103.379 104.019 103.257 103.891C103.01 103.634 102.916 103.262 102.683 103.005C102.567 102.879 102.415 102.815 102.254 102.824C102.093 102.831 101.93 102.884 101.769 102.921C101.608 102.959 101.438 102.984 101.281 102.947C101.126 102.914 100.998 102.837 100.9 102.752C100.703 102.579 100.616 102.375 100.594 102.235C100.57 102.093 100.592 102.014 100.6 102.015C100.614 102.015 100.614 102.093 100.654 102.22C100.692 102.345 100.787 102.522 100.971 102.665C101.063 102.735 101.177 102.796 101.307 102.818C101.435 102.843 101.58 102.82 101.734 102.779C101.888 102.74 102.053 102.679 102.248 102.668C102.443 102.651 102.661 102.741 102.798 102.895C103.069 103.203 103.154 103.569 103.362 103.789C103.463 103.897 103.59 103.957 103.72 103.962C103.851 103.967 103.981 103.934 104.102 103.909C104.345 103.846 104.573 103.869 104.7 103.946C104.83 104.024 104.85 104.115 104.843 104.115Z" fill="#263238"/>
<path d="M105.376 103.367C105.356 103.406 104.339 102.904 103.106 102.246C101.873 101.588 100.89 101.024 100.91 100.985C100.931 100.946 101.947 101.448 103.181 102.106C104.414 102.764 105.397 103.329 105.376 103.367Z" fill="#263238"/>
<path d="M104.453 104.541C104.455 104.553 104.388 104.573 104.275 104.625C104.219 104.65 104.154 104.689 104.065 104.725C103.976 104.761 103.861 104.775 103.744 104.766C103.512 104.75 103.226 104.677 102.978 104.471C102.854 104.37 102.75 104.223 102.685 104.069C102.617 103.917 102.563 103.761 102.46 103.65C102.247 103.422 101.903 103.398 101.617 103.408C101.323 103.419 101.034 103.428 100.808 103.331C100.585 103.238 100.449 103.079 100.399 102.956C100.347 102.83 100.365 102.753 100.373 102.754C100.387 102.752 100.391 102.825 100.454 102.927C100.515 103.029 100.646 103.156 100.848 103.226C101.049 103.298 101.312 103.282 101.612 103.262C101.903 103.246 102.298 103.251 102.577 103.542C102.71 103.689 102.764 103.862 102.828 104.005C102.888 104.151 102.968 104.267 103.074 104.36C103.283 104.545 103.542 104.626 103.755 104.654C103.97 104.694 104.125 104.604 104.253 104.567C104.378 104.531 104.451 104.532 104.453 104.541Z" fill="#263238"/>
<path d="M69.3202 74.6548L77.3669 73.4615L73.5195 68.0112L71.4565 68.1328C70.068 68.2147 68.844 69.0727 68.2936 70.3501C68.0011 71.0285 67.9199 71.7792 68.06 72.5047L69.3202 74.6548Z" fill="#FF9B21"/>
<path opacity="0.4" d="M69.3202 74.6548L77.3669 73.4615L73.5195 68.0112L71.4565 68.1328C70.068 68.2147 68.844 69.0727 68.2936 70.3501C68.0011 71.0285 67.9199 71.7792 68.06 72.5047L69.3202 74.6548Z" fill="black"/>
<path d="M103.886 83.571C103.968 83.8014 104.059 84.0743 104.151 84.4004C104.229 84.6804 104.257 84.9723 104.237 85.2625C104.214 85.6142 104.163 86.0807 104.056 86.3271C103.923 86.6324 104.231 86.9396 104.492 86.787C104.752 86.6343 105.138 85.8023 105.114 84.7313C105.09 83.6602 106.183 84.9441 106.589 85.4046C106.996 85.8651 108.32 87.2315 108.561 87.2187C108.914 87.1998 108.959 86.8183 108.542 86.3678C108.12 85.9118 106.971 84.4779 107.224 84.275C107.474 84.075 109.512 86.4484 109.512 86.4484C109.512 86.4484 109.865 87.0263 110.166 86.8014C110.709 86.3959 108.357 84.0324 108.128 83.8132C107.968 83.6606 108.236 83.4305 108.399 83.6033C108.566 83.7812 110.376 86.018 110.932 85.6103C111.359 85.2977 109.016 83.6484 108.898 82.9758C108.78 82.3031 110.548 84.4071 110.943 84.0919C111.091 83.9745 111.184 83.8663 109.995 82.8046C109.418 82.2891 107.223 80.7531 107.223 80.7531L100.618 61.8427L95.5176 64.7636L103.886 83.571Z" fill="#FFBE9D"/>
<path d="M64.5681 47.8077L57.1877 38.9997L57.187 39C57.0913 38.6973 56.9765 38.402 56.8261 38.122C56.4571 37.4349 55.8469 36.8362 55.0849 36.6695C54.6168 36.5671 54.0811 36.6164 53.7137 36.3085C53.5496 36.1709 53.4401 35.9751 53.268 35.8474C53.0961 35.7197 52.8094 35.6951 52.6993 35.8791C52.6209 36.01 52.6709 36.1776 52.7301 36.3181C53.004 36.9684 53.4517 37.5428 54.0113 37.9719C53.3192 38.1821 52.331 38.5002 52.331 38.5002C52.331 38.5002 50.7707 36.8074 49.9717 36.8128C49.1726 36.8183 50.6174 38.3242 50.6174 38.3242C50.6174 38.3242 49.3377 37.1418 48.9409 37.4749C48.5441 37.8084 49.5611 38.6861 49.5611 38.6861C49.2379 38.5133 48.8843 38.3354 48.523 38.3952C48.1617 38.4554 47.8507 38.882 48.0453 39.192C48.1198 39.3111 48.2475 39.384 48.3704 39.4525C49.0251 39.8173 49.6798 40.1824 50.3349 40.5476C50.6635 40.7309 51.0088 40.9188 51.3851 40.9303C52.3816 40.961 53.1393 40.344 54.1358 40.3706C54.1358 40.3706 59.7013 52.0861 60.2641 52.6903C60.827 53.2944 73.0536 54.1172 73.0536 54.1172L80.1301 48.0202L64.5681 47.8077Z" fill="#FFBE9D"/>
<path d="M86.7353 111.624L94.2723 114.906L90.2361 124.304C89.3619 123.863 89.6476 118.228 89.6476 118.228L84.7324 116.323L86.7353 111.624Z" fill="#FF9B21"/>
<g opacity="0.6">
<path d="M90.4874 115.146C90.6154 114.986 90.8736 114.948 91.0394 115.069C91.2051 115.19 91.2458 115.453 91.1207 115.615C90.9955 115.778 90.6867 115.833 90.5357 115.694C90.3847 115.555 90.3536 115.244 90.5139 115.116" fill="white"/>
</g>
<path opacity="0.6" d="M94.2703 114.906L93.4978 114.605L89.917 123.728C89.917 123.728 89.9192 124.225 90.2344 124.304L94.2703 114.906Z" fill="white"/>
<path d="M89.5332 118.36C89.5799 118.378 89.6989 118.157 89.9437 117.995C90.184 117.826 90.4327 117.795 90.4327 117.745C90.442 117.699 90.1383 117.649 89.8455 117.851C89.5511 118.05 89.4868 118.351 89.5332 118.36Z" fill="#263238"/>
<path d="M89.5177 119.521C89.5577 119.55 89.7209 119.385 89.982 119.313C90.2409 119.232 90.4678 119.283 90.4854 119.237C90.5113 119.197 90.2559 119.05 89.9331 119.146C89.6095 119.239 89.4742 119.501 89.5177 119.521Z" fill="#263238"/>
<path d="M90.4582 120.587C90.486 120.549 90.2841 120.387 89.982 120.397C89.6799 120.404 89.4879 120.578 89.5177 120.614C89.5442 120.656 89.7388 120.575 89.9868 120.57C90.2351 120.561 90.4342 120.631 90.4582 120.587Z" fill="#263238"/>
<path d="M88.4632 117.801C88.5131 117.799 88.5403 117.562 88.6693 117.31C88.7931 117.055 88.9669 116.891 88.9378 116.85C88.916 116.809 88.6616 116.933 88.5138 117.232C88.3637 117.53 88.4174 117.808 88.4632 117.801Z" fill="#263238"/>
<path d="M87.4439 117.098C87.4628 117.107 87.569 116.937 87.6436 116.626C87.6804 116.471 87.7063 116.281 87.7037 116.069C87.7021 115.963 87.6938 115.851 87.6762 115.737C87.6669 115.682 87.6609 115.618 87.6266 115.547C87.6007 115.476 87.4913 115.395 87.3914 115.422C87.2986 115.438 87.2308 115.51 87.2001 115.577C87.1681 115.646 87.1578 115.708 87.1485 115.764C87.129 115.88 87.1217 115.993 87.1233 116.1C87.1277 116.315 87.1684 116.505 87.2218 116.656C87.33 116.961 87.4695 117.109 87.4852 117.097C87.5092 117.083 87.4109 116.915 87.3399 116.622C87.3044 116.475 87.2794 116.297 87.2836 116.1C87.2861 116.002 87.2964 115.899 87.3162 115.794C87.3329 115.684 87.3684 115.598 87.4237 115.592C87.4445 115.59 87.4519 115.592 87.4721 115.625C87.4897 115.658 87.4986 115.71 87.5079 115.764C87.5265 115.871 87.5377 115.974 87.5431 116.074C87.554 116.273 87.5421 116.454 87.522 116.604C87.4823 116.905 87.4189 117.088 87.4439 117.098Z" fill="#263238"/>
<path d="M87.5342 117.067C87.5482 117.053 87.4228 116.891 87.1329 116.747C86.9889 116.676 86.8036 116.615 86.5898 116.59C86.4833 116.579 86.3697 116.576 86.2526 116.587C86.1361 116.602 85.9828 116.616 85.8858 116.785C85.8423 116.877 85.882 116.985 85.9326 117.038C85.9828 117.097 86.0346 117.126 86.0842 117.161C86.1866 117.225 86.2951 117.269 86.401 117.297C86.6138 117.353 86.8154 117.343 86.9735 117.305C87.2961 117.226 87.433 117.058 87.4193 117.047C87.403 117.022 87.2455 117.144 86.9511 117.184C86.8062 117.203 86.6273 117.2 86.4449 117.143C86.354 117.115 86.2622 117.074 86.1767 117.017C86.083 116.96 86.0186 116.888 86.0449 116.855C86.0641 116.808 86.1735 116.761 86.2698 116.756C86.3748 116.744 86.4775 116.743 86.5751 116.749C86.7703 116.763 86.9438 116.807 87.0839 116.859C87.3658 116.966 87.5166 117.089 87.5342 117.067Z" fill="#263238"/>
<path d="M80.9307 124.534L84.0478 131.065L85.0241 136.942C85.0945 137.365 85.5086 137.64 85.9265 137.542C86.1604 137.486 86.3521 137.323 86.442 137.1C87.0151 135.681 89.0971 130.452 88.842 129.986C88.547 129.447 86.011 122.879 86.011 122.879L80.9307 124.534Z" fill="#FF9B21"/>
<path opacity="0.6" d="M85.9258 137.542L88.6413 129.541L88.7671 129.821C88.8759 130.063 88.8963 130.335 88.8224 130.59C88.6247 131.271 88.0375 133.139 86.4615 137.092C86.3699 137.321 86.168 137.491 85.9258 137.542Z" fill="white"/>
<g opacity="0.6">
<path d="M86.3318 128.02C86.2179 128.209 86.2761 128.483 86.4601 128.605C86.6441 128.727 86.9235 128.67 87.0409 128.483C87.158 128.297 87.0982 127.965 86.9017 127.865C86.7055 127.764 86.3807 127.849 86.3116 128.059" fill="white"/>
</g>
<path d="M86.1396 133.98C86.1104 134.015 85.8061 133.736 85.33 133.727C84.8541 133.703 84.5312 133.96 84.5047 133.923C84.4916 133.909 84.552 133.821 84.697 133.729C84.84 133.638 85.073 133.56 85.3357 133.568C85.5984 133.578 85.8253 133.673 85.9616 133.774C86.0996 133.874 86.1536 133.967 86.1396 133.98Z" fill="#263238"/>
<path d="M86.0653 135.075C86.0467 135.118 85.7382 134.998 85.353 135.054C84.9664 135.101 84.7002 135.297 84.671 135.261C84.6368 135.235 84.8915 134.953 85.3318 134.896C85.7715 134.835 86.0915 135.042 86.0653 135.075Z" fill="#263238"/>
<path d="M86.5049 132.454C86.4879 132.499 86.0146 132.313 85.4079 132.347C84.8006 132.372 84.3474 132.602 84.3263 132.559C84.2998 132.528 84.749 132.216 85.4002 132.188C86.0511 132.153 86.5282 132.421 86.5049 132.454Z" fill="#263238"/>
<path d="M85.7232 130.389C85.7232 130.437 85.2902 130.448 84.808 130.644C84.3228 130.834 84.0009 131.124 83.9683 131.089C83.9356 131.065 84.2284 130.702 84.7491 130.497C85.2678 130.287 85.7302 130.349 85.7232 130.389Z" fill="#263238"/>
<path d="M84.8553 128.449C84.8521 128.496 84.3865 128.441 83.8956 128.689C83.3993 128.926 83.1586 129.329 83.1193 129.303C83.1023 129.294 83.1372 129.179 83.2499 129.022C83.3612 128.866 83.5602 128.678 83.8255 128.547C84.0914 128.416 84.3622 128.374 84.5535 128.381C84.7458 128.387 84.8585 128.43 84.8553 128.449Z" fill="#263238"/>
<path d="M83.7422 128.315C83.7339 128.319 83.6792 128.237 83.621 128.069C83.5637 127.903 83.5045 127.647 83.5256 127.326C83.5419 127.172 83.5451 126.98 83.6904 126.811C83.7624 126.726 83.9064 126.681 84.0242 126.734C84.14 126.784 84.2133 126.881 84.2626 126.985C84.444 127.407 84.2664 127.974 83.8222 128.246C83.3723 128.511 82.8222 128.433 82.4725 128.156C82.3893 128.08 82.3093 127.978 82.3106 127.844C82.3102 127.708 82.4242 127.603 82.5262 127.577C82.7355 127.518 82.9099 127.575 83.0626 127.608C83.3723 127.688 83.5995 127.817 83.7435 127.918C83.8885 128.02 83.9534 128.093 83.9474 128.1C83.932 128.128 83.6347 127.851 83.0366 127.717C82.8891 127.691 82.7154 127.652 82.5685 127.702C82.4968 127.726 82.4498 127.78 82.4501 127.846C82.4488 127.911 82.5 127.988 82.5685 128.045C82.86 128.27 83.363 128.34 83.7397 128.11C84.1163 127.885 84.2715 127.386 84.1288 127.045C84.0933 126.964 84.0347 126.892 83.9698 126.863C83.9058 126.835 83.8347 126.851 83.7851 126.903C83.6798 127.012 83.6562 127.19 83.6376 127.337C83.5771 127.946 83.7746 128.308 83.7422 128.315Z" fill="#263238"/>
<path d="M91.434 112.421L82.8881 106.669L85.7163 78.895L77.6212 74.1676L70.2187 72.4525C70.2187 72.4525 67.1268 78.8841 65.7521 83.0016C62.8279 91.7584 60.7755 94.8966 61.2446 101.244C61.3931 103.253 68.8116 108.278 73.4967 111.07C73.5611 111.711 73.643 112.271 73.7454 112.733C75.3463 119.971 80.2331 129.596 80.2331 129.596L87.6599 126.143L85.2635 117.936L87.7595 119.392L91.434 112.421ZM73.0641 94.5126L74.0612 90.0608C73.8503 92.8912 73.6577 95.8445 73.5198 98.6761C73.0398 97.3673 72.8763 95.9129 73.0641 94.5126Z" fill="#2B44FF"/>
<path d="M80.2317 129.595C80.2292 129.596 80.2097 129.556 80.1741 129.478C80.1364 129.392 80.0855 129.276 80.0202 129.128C79.8858 128.81 79.6929 128.355 79.4461 127.773C78.9527 126.594 78.2465 124.886 77.3965 122.766C76.5514 120.643 75.5447 118.116 74.5309 115.269C74.2785 114.557 74.0308 113.823 73.7981 113.065C73.6951 112.681 73.5658 112.303 73.4983 111.897C73.4788 111.797 73.4561 111.696 73.4397 111.595L73.4042 111.292C73.3815 111.09 73.3591 110.886 73.3361 110.682C73.249 109.864 73.177 109.03 73.1236 108.182C73.0967 107.758 73.0737 107.33 73.057 106.9C73.0417 106.471 73.0221 106.033 73.0471 105.597C73.1725 102.107 73.466 98.7989 73.7073 95.7877C73.9588 92.7797 74.1853 90.07 74.3757 87.7916C74.5601 85.5151 74.689 83.6716 74.762 82.3967C74.8017 81.7592 74.8237 81.2642 74.8388 80.9282C74.8477 80.7663 74.8545 80.6396 74.8596 80.5461C74.865 80.46 74.8695 80.4162 74.8721 80.4162C74.8746 80.4162 74.8759 80.4604 74.8759 80.5468C74.8746 80.6402 74.873 80.7669 74.8711 80.9292C74.8663 81.2655 74.8545 81.7615 74.8241 82.3996C74.77 83.676 74.6583 85.5218 74.4881 87.7999C74.3073 90.0792 74.0922 92.79 73.8535 95.7992C73.6205 98.8095 73.3313 102.121 73.2065 105.6C73.1818 106.034 73.201 106.463 73.2161 106.893C73.2327 107.322 73.2551 107.749 73.2817 108.171C73.3345 109.017 73.4055 109.849 73.4913 110.665C73.5137 110.869 73.5361 111.072 73.5585 111.274L73.5933 111.576C73.6097 111.675 73.6317 111.772 73.6503 111.87C73.7143 112.261 73.8429 112.641 73.9441 113.021C74.1738 113.775 74.4193 114.508 74.6695 115.22C75.674 118.065 76.6698 120.597 77.5012 122.724C78.3444 124.84 79.0276 126.555 79.5034 127.749C79.7383 128.336 79.922 128.795 80.05 129.115C80.1092 129.266 80.1553 129.384 80.1892 129.471C80.2199 129.552 80.2343 129.594 80.2317 129.595Z" fill="#455A64"/>
<path d="M74.5205 79.4778C74.5134 79.4862 74.4456 79.4311 74.3256 79.3201C74.2142 79.203 74.0792 79.0058 73.9643 78.7393C73.7342 78.2046 73.6174 77.4065 73.6001 76.5358C73.5841 75.6628 73.6488 74.8766 73.7061 74.3105C73.7649 73.7444 73.8133 73.3959 73.8344 73.3975C73.8568 73.3991 73.8481 73.7518 73.8181 74.3191C73.7896 74.8865 73.7432 75.6695 73.7589 76.5326C73.7761 77.3934 73.8737 78.1742 74.0689 78.6983C74.1665 78.9598 74.2805 79.1556 74.3729 79.2804C74.4734 79.3982 74.5272 79.4695 74.5205 79.4778Z" fill="#455A64"/>
<path d="M71.3242 72.8675C71.3402 72.864 71.4173 73.1587 71.3879 73.6445C71.3613 74.1258 71.1972 74.8035 70.7754 75.423C70.353 76.0426 69.7824 76.4432 69.344 76.6442C68.9024 76.8493 68.6004 76.8854 68.5978 76.8691C68.5901 76.8429 68.8788 76.768 69.2935 76.5437C69.7063 76.3232 70.2407 75.9254 70.6442 75.3334C71.0474 74.7414 71.2221 74.0989 71.2762 73.6339C71.3328 73.1661 71.297 72.8701 71.3242 72.8675Z" fill="#455A64"/>
<path d="M84.6052 89.0149C84.6081 89.0152 84.6075 89.0437 84.6036 89.0997C84.5982 89.1643 84.5915 89.2456 84.5828 89.3467C84.5598 89.5752 84.5281 89.8923 84.4878 90.2949C84.3969 91.1301 84.2673 92.3173 84.1083 93.7797C83.7742 96.7307 83.3147 100.788 82.8075 105.269C82.6113 107.512 82.8071 109.672 83.2283 111.574C83.4363 112.528 83.7121 113.413 84.002 114.232C84.2894 115.053 84.5572 115.817 84.8023 116.517C85.2839 117.906 85.6753 119.035 85.9505 119.828C86.0798 120.212 86.1815 120.514 86.2551 120.731C86.2859 120.828 86.3108 120.906 86.3307 120.968C86.347 121.021 86.3537 121.049 86.3511 121.05C86.3486 121.051 86.3364 121.025 86.3153 120.973C86.2916 120.913 86.2619 120.836 86.2251 120.742C86.1447 120.527 86.0337 120.228 85.8923 119.849C85.6059 119.059 85.1982 117.936 84.6967 116.554C84.4462 115.856 84.1723 115.094 83.8782 114.276C83.5819 113.456 83.299 112.564 83.0859 111.606C82.6539 109.692 82.4516 107.516 82.6494 105.255C83.1492 100.761 83.6458 96.708 83.9969 93.7679C84.1774 92.308 84.3236 91.1227 84.4267 90.2888C84.4798 89.8875 84.5214 89.5714 84.5515 89.3435C84.5665 89.2431 84.5783 89.1624 84.5879 89.0981C84.5966 89.0427 84.6026 89.0146 84.6052 89.0149Z" fill="#455A64"/>
<path d="M70.2178 72.3996L71.5285 69.0502L74.5199 73.5106L70.5317 72.5135" fill="#FFBE9D"/>
<path d="M101.521 62.3312L97.9705 54.3725C97.5462 53.0928 96.75 52.8941 96.0831 52.1517L87.1894 47.1357C80.7078 44.481 77.1788 53.3844 77.1788 53.3844L71.2876 66.8218C64.3599 69.1184 69.2652 74.4391 69.2652 74.4391C69.2652 74.4391 67.3807 71.1636 69.2338 69.9818C71.1743 68.7444 73.3257 72.0045 75.3926 75.1012C77.8329 78.7568 85.7625 81.1316 85.7625 81.1316C86.6902 80.1517 86.4306 76.7312 87.1567 74.8954C87.3871 74.3133 92.8783 61.5943 92.8783 61.5943L95.007 66.7514C95.007 66.7514 97.7356 63.5524 99.0578 63.0439C100.38 62.5348 101.521 62.3312 101.521 62.3312Z" fill="#FF9B21"/>
<path d="M85.7628 67.987C85.7679 67.9953 85.6748 68.066 85.4937 68.1748C85.3129 68.284 85.0393 68.4241 84.6844 68.5582C83.9811 68.8292 82.9164 69.0395 81.7619 68.8612C80.607 68.683 79.6553 68.1614 79.0662 67.691C78.7686 67.4561 78.55 67.2401 78.4105 67.0814C78.2707 66.923 78.2031 66.8273 78.2105 66.8209C78.2326 66.8001 78.5315 67.1617 79.134 67.6011C79.7295 68.0401 80.6636 68.5307 81.7862 68.7041C82.9084 68.8772 83.9468 68.6913 84.647 68.4523C85.3539 68.2152 85.7481 67.9604 85.7628 67.987Z" fill="#263238"/>
<path d="M71.0235 55.3662L76.5121 55.884L85.2923 46.6037L80.1285 46.4264L70.9326 47.3339C70.9326 47.3339 71.747 51.1669 71.0235 55.3662Z" fill="#FF9B21"/>
<path d="M78.6482 50.4765C78.653 50.4791 78.6296 50.5376 78.581 50.6467C78.5234 50.7706 78.4504 50.9274 78.3608 51.1203C78.1595 51.5501 77.8834 52.1395 77.5464 52.8592C76.8639 54.3299 75.9583 56.3786 74.9768 58.6503C73.9954 60.9229 73.1023 62.9789 72.4274 64.4544C72.0904 65.1927 71.8123 65.7872 71.6123 66.1946C71.5176 66.3853 71.4405 66.5402 71.3797 66.6624C71.325 66.7687 71.2939 66.8234 71.2888 66.8208C71.2837 66.8186 71.3052 66.7594 71.3506 66.6487C71.4044 66.5229 71.4725 66.3639 71.556 66.1683C71.7461 65.7335 72.0063 65.137 72.3244 64.4083C72.9733 62.9011 73.8556 60.8515 74.8306 58.5866C75.8124 56.3143 76.7352 54.2707 77.4444 52.8109C77.798 52.0803 78.092 51.4931 78.3052 51.0922C78.4056 50.9047 78.4876 50.752 78.5522 50.6317C78.6104 50.5277 78.6431 50.4743 78.6482 50.4765Z" fill="#263238"/>
<path d="M95.3987 53.1753C95.414 53.2022 95.0736 53.3798 94.6093 53.775C94.3753 53.9702 94.1219 54.231 93.8675 54.5421C93.6204 54.8589 93.3766 55.2288 93.1715 55.6448C92.9721 56.0637 92.8326 56.4845 92.7369 56.8745C92.6505 57.2669 92.6025 57.6275 92.5942 57.9318C92.5718 58.5411 92.6432 58.9181 92.6124 58.9229C92.6016 58.9248 92.5785 58.8323 92.5456 58.6617C92.5273 58.5766 92.5097 58.472 92.5027 58.3485C92.494 58.2256 92.4752 58.0851 92.4819 57.9296C92.4758 57.6182 92.5129 57.247 92.5939 56.8425C92.6838 56.4403 92.823 56.0057 93.0281 55.5753C93.239 55.1478 93.4937 54.7693 93.7536 54.4496C94.0208 54.1353 94.2892 53.8765 94.5376 53.6883C94.6556 53.5865 94.7772 53.5142 94.8793 53.4451C94.9804 53.3744 95.0739 53.3232 95.152 53.2848C95.3065 53.2048 95.3936 53.1654 95.3987 53.1753Z" fill="#263238"/>
<path d="M96.932 40.4291L91.7828 50.0537C90.9422 51.6253 89.0296 52.279 87.403 51.551C85.612 50.7497 84.8708 48.6003 85.7883 46.8659C86.2737 45.9478 86.6766 45.1981 86.6766 45.1981C86.6766 45.1981 84.4379 43.7472 85.4849 41.3283C86.419 39.1702 89.8481 33.079 90.5764 31.791L94.9163 33.7331C97.3534 34.9993 98.2651 38.0278 96.932 40.4291Z" fill="#FFBE9D"/>
<path d="M86.6907 45.1624C86.6907 45.1624 88.1557 45.9663 90.2258 45.6744C90.2258 45.6744 88.7096 47.0741 86.4062 45.7832L86.6907 45.1624Z" fill="#EB996E"/>
<path d="M88.3414 37.4674C88.2538 37.6459 88.3328 37.8674 88.5174 37.9624C88.7018 38.0571 88.9226 37.9896 89.0102 37.811C89.0979 37.6325 89.0189 37.411 88.8346 37.3163C88.6499 37.2213 88.4288 37.2888 88.3414 37.4674Z" fill="#263238"/>
<path d="M88.3636 37.1605C88.3863 37.2242 88.7325 37.1483 89.1018 37.3147C89.473 37.4757 89.6593 37.7874 89.7194 37.7598C89.7482 37.7486 89.7409 37.6485 89.6612 37.5096C89.5834 37.372 89.4221 37.1998 89.1914 37.0978C88.9607 36.996 88.729 36.9941 88.5789 37.0309C88.4263 37.067 88.3514 37.131 88.3636 37.1605Z" fill="#263238"/>
<path d="M91.7985 39.1678C91.7108 39.3463 91.7898 39.5678 91.9748 39.6625C92.1591 39.7572 92.3799 39.6897 92.4676 39.5111C92.5553 39.3326 92.4762 39.1108 92.2919 39.0161C92.107 38.9214 91.8862 38.9892 91.7985 39.1678Z" fill="#263238"/>
<path d="M91.9641 38.8554C91.9868 38.9194 92.3334 38.8432 92.7023 39.0096C93.0735 39.1706 93.2598 39.4823 93.3203 39.4547C93.3487 39.4435 93.342 39.3434 93.262 39.2042C93.1839 39.0666 93.023 38.8944 92.7923 38.7923C92.5612 38.6906 92.3299 38.6887 92.1795 38.7255C92.0271 38.7623 91.9523 38.8259 91.9641 38.8554Z" fill="#263238"/>
<path d="M89.3973 40.9969C89.4085 40.9767 89.1963 40.834 88.8453 40.6199C88.7554 40.5681 88.6744 40.5092 88.6872 40.4375C88.6955 40.3594 88.7807 40.2753 88.8754 40.186C89.0664 39.9972 89.2664 39.7994 89.4763 39.5921C90.3221 38.7421 90.9794 38.0263 90.9448 37.9924C90.9103 37.9588 90.197 38.6202 89.3512 39.4701C89.1448 39.6807 88.948 39.8813 88.7602 40.0737C88.6763 40.1649 88.5605 40.2593 88.5455 40.4221C88.5394 40.5041 88.5858 40.5863 88.6389 40.6295C88.6911 40.6749 88.7439 40.6999 88.7893 40.7236C89.1547 40.9114 89.3864 41.0173 89.3973 40.9969Z" fill="#263238"/>
<path d="M90.3706 41.7392C90.312 41.7088 90.1318 42.1098 89.6608 42.241C89.1901 42.3731 88.7824 42.1366 88.7542 42.1914C88.7373 42.2141 88.8147 42.312 88.993 42.3977C89.1674 42.4832 89.4515 42.5421 89.7395 42.4617C90.0272 42.3808 90.2214 42.1881 90.3091 42.0294C90.3994 41.8685 90.399 41.7491 90.3706 41.7392Z" fill="#263238"/>
<path d="M92.5167 37.3648C92.5081 37.4816 92.8985 37.599 93.3091 37.8454C93.7244 38.0835 94.0172 38.367 94.1151 38.3027C94.1603 38.271 94.1414 38.1491 94.0435 37.9884C93.9468 37.8284 93.7644 37.6361 93.5171 37.4905C93.2694 37.3456 93.0124 37.2803 92.8259 37.2739C92.638 37.2668 92.5225 37.31 92.5167 37.3648Z" fill="#263238"/>
<path d="M88.9785 36.1509C89.006 36.2639 89.2994 36.2907 89.6076 36.4239C89.9202 36.5461 90.1478 36.7333 90.247 36.6722C90.2921 36.6411 90.2889 36.5387 90.2111 36.4088C90.135 36.2795 89.9772 36.1314 89.7638 36.0434C89.5503 35.956 89.334 35.9503 89.189 35.9887C89.0425 36.0267 88.9682 36.0971 88.9785 36.1509Z" fill="#263238"/>
<path d="M95.3147 41.8732C95.3636 41.8739 97.1863 42.1241 96.3979 43.7452C95.6094 45.3664 94.1444 44.2403 94.1643 44.1926C94.1841 44.1446 95.3147 41.8732 95.3147 41.8732Z" fill="#FFBE9D"/>
<path d="M94.9571 43.8192C94.9667 43.8176 94.9757 43.8528 95.0128 43.8979C95.0489 43.9418 95.1219 43.9955 95.2218 44.0048C95.4237 44.0253 95.7001 43.8234 95.8499 43.535C95.9257 43.3894 95.9632 43.2339 95.9677 43.0922C95.976 42.9494 95.9395 42.8294 95.8608 42.7722C95.7846 42.7104 95.6986 42.7325 95.6563 42.7683C95.6125 42.8032 95.607 42.8403 95.5971 42.839C95.5907 42.841 95.5753 42.7949 95.6211 42.7344C95.6435 42.7056 95.6809 42.6765 95.7344 42.664C95.7888 42.6512 95.8537 42.663 95.9107 42.6986C96.0317 42.768 96.088 42.9376 96.0835 43.0934C96.0854 43.2531 96.0467 43.4294 95.9616 43.593C95.7923 43.9146 95.4765 44.1389 95.2089 44.0928C95.0806 44.0672 95.0019 43.9866 94.9715 43.9242C94.9411 43.8598 94.9501 43.8195 94.9571 43.8192Z" fill="#EB996E"/>
<path d="M96.2549 42.2253C96.0313 42.0525 95.4937 42.0896 95.2818 42.2768C95.0697 42.4637 94.9269 42.7194 94.7154 42.9066C94.5036 43.0938 94.1676 43.1984 93.9429 43.0269C93.7881 42.9085 93.7369 42.6906 93.7682 42.4983C93.7996 42.3056 93.8994 42.1322 94.0009 41.9655C94.4415 41.2407 94.9439 40.5514 95.3209 39.7917C95.6978 39.032 95.9474 38.1789 95.8361 37.3383C95.7247 36.4973 95.1957 35.6791 94.3961 35.3959C93.8665 35.2084 93.2783 35.265 92.7388 35.1088C92.0991 34.9239 91.5577 34.4263 91.3189 33.8045C91.2882 33.7248 91.1074 33.4407 91.1074 33.4407C91.1253 33.401 91.3167 33.0743 91.5081 33.0096C92.9324 32.5287 94.8642 33.081 96.045 34.0116C97.2258 34.9421 98.0527 36.4397 98.0671 37.9428C98.0809 39.4461 97.1349 41.1044 96.2549 42.2253Z" fill="#263238"/>
<path d="M96.2718 42.0628C96.7221 41.297 97.4529 40.7415 98.011 40.0503C98.5688 39.3588 98.9521 38.3844 98.555 37.5898C98.4193 37.3181 98.2021 37.0906 98.0888 36.809C97.9749 36.5258 97.9745 36.2122 97.9307 35.9101C97.7953 34.9767 97.2053 34.1197 96.3813 33.6605C95.8117 33.3428 95.1541 33.2125 94.5768 32.9092C93.6625 32.4285 92.9937 31.5376 92.0331 31.1578C91.7144 31.0317 91.3413 30.9706 91.0363 31.1277C90.7317 31.2848 90.5681 31.7268 90.7902 31.9882C90.7509 31.6816 90.3534 31.5133 90.0715 31.6407C89.7899 31.768 89.6456 32.1034 89.6648 32.4119C89.684 32.7204 89.8369 33.0048 90.0139 33.2583C90.5973 34.0938 91.4894 34.7082 92.4779 34.9552L94.6869 34.7831L96.4977 36.1252L97.8382 38.2583L95.4078 41.4157L96.2718 42.0628Z" fill="#263238"/>
<path d="M82.4497 29.4712C82.172 25.1717 78.4612 21.9115 74.1617 22.1893C69.8622 22.4671 66.602 26.1778 66.8798 30.4773C67.0811 33.5903 69.082 36.157 71.8027 37.2319C71.8622 38.1544 71.9294 39.1957 71.9294 39.1957L78.7528 38.7547C78.7528 38.7547 78.7227 37.6498 78.6744 36.6648C81.098 35.2101 82.6446 32.4866 82.4497 29.4712Z" fill="#77A8AF"/>
<path d="M76.2836 38.8822C76.2836 38.8822 76.2823 38.8493 76.2852 38.7856C76.2884 38.7181 76.2928 38.624 76.2989 38.5027C76.313 38.2541 76.3335 37.8877 76.3719 37.4163C76.4109 36.945 76.466 36.3683 76.5722 35.704C76.6816 35.0413 76.8404 34.2867 77.1386 33.4918C77.288 33.0947 77.4644 32.6864 77.7037 32.2854C77.8272 32.089 77.9853 31.8947 78.2052 31.7731C78.4247 31.6502 78.7079 31.6317 78.946 31.7494C79.0637 31.8077 79.1671 31.912 79.2122 32.0416C79.2618 32.1686 79.2583 32.3174 79.2055 32.4432C79.1012 32.6973 78.8826 32.8835 78.6375 33.0003C78.1351 33.2134 77.5396 33.2064 77.0116 32.9904C76.482 32.7747 76.0407 32.3219 75.8285 31.7626C75.7261 31.4845 75.6602 31.1766 75.7245 30.8675C75.7783 30.561 76.0544 30.2717 76.3968 30.281C76.5664 30.2826 76.7268 30.3878 76.8109 30.5299C76.8983 30.671 76.9293 30.8426 76.9044 31.0058C76.8503 31.3354 76.6317 31.5936 76.4071 31.8147C75.9428 32.2518 75.289 32.5203 74.6266 32.4586C73.9687 32.3965 73.3559 32.0038 73.0487 31.4336C72.889 31.1539 72.8324 30.8054 72.9351 30.4941C72.9869 30.3405 73.0967 30.193 73.2541 30.1277C73.4087 30.0563 73.5901 30.0736 73.7364 30.1408C73.8842 30.207 74.0084 30.3238 74.0871 30.4611C74.1684 30.5978 74.2119 30.7507 74.2349 30.9018C74.2765 31.2054 74.2528 31.5114 74.1741 31.799C74.0208 32.3757 73.6484 32.8781 73.161 33.1754C72.6759 33.4758 72.097 33.5846 71.5645 33.5008C71.3015 33.4602 71.0295 33.3738 70.8397 33.1744C70.6541 32.9798 70.5847 32.6573 70.7482 32.4272C70.8298 32.3165 70.9588 32.2518 71.0871 32.2336C71.216 32.216 71.3463 32.2339 71.4631 32.2819C71.7015 32.3811 71.8567 32.5862 71.9741 32.7853C72.1972 33.1949 72.3805 33.5949 72.5648 33.9763C73.2887 35.5053 73.8141 36.7696 74.1677 37.6461C74.3444 38.0845 74.4762 38.4272 74.5648 38.6598C74.6071 38.7738 74.6397 38.8618 74.6634 38.9251C74.6852 38.9853 74.6938 39.0166 74.6938 39.0166C74.6938 39.0166 74.6788 38.9875 74.6541 38.9286C74.6285 38.8659 74.5927 38.7789 74.5469 38.6666C74.4509 38.4326 74.3117 38.0941 74.1332 37.6598C73.769 36.7878 73.2346 35.5283 72.5037 34.0051C72.3188 33.6269 72.1303 33.2221 71.9104 32.8224C71.7965 32.6294 71.6461 32.4387 71.4343 32.3526C71.2288 32.2675 70.9498 32.2861 70.8122 32.4736C70.6772 32.6598 70.7338 32.9475 70.8992 33.1174C71.0685 33.2954 71.3232 33.3789 71.5776 33.417C72.0903 33.496 72.649 33.3898 73.1146 33.0995C73.5818 32.8131 73.9389 32.3296 74.0858 31.7744C74.1613 31.4979 74.1831 31.2026 74.1431 30.9146C74.104 30.6314 73.9655 30.3414 73.698 30.225C73.5696 30.1667 73.4189 30.1536 73.2922 30.2128C73.1629 30.2666 73.0714 30.3872 73.0247 30.5238C72.9335 30.8032 72.9815 31.1242 73.1328 31.3872C73.4228 31.9264 74.01 32.3037 74.6356 32.3619C75.266 32.4214 75.8954 32.1645 76.3418 31.7443C76.5594 31.5318 76.7648 31.2819 76.8109 30.9907C76.833 30.8486 76.8052 30.6989 76.7309 30.5786C76.6583 30.4579 76.5316 30.3757 76.3936 30.3738C76.256 30.369 76.1175 30.4294 76.0148 30.5238C75.9101 30.617 75.8455 30.7482 75.8154 30.8867C75.7559 31.1664 75.816 31.463 75.9143 31.7293C76.1165 32.2656 76.5396 32.7011 77.0458 32.9082C77.5495 33.1174 78.129 33.1232 78.6023 32.9232C78.832 32.8157 79.0375 32.6374 79.1293 32.4128C79.2279 32.1894 79.1229 31.9184 78.9098 31.8195C78.7012 31.7146 78.4397 31.7286 78.2423 31.8397C78.0391 31.951 77.8874 32.1334 77.7664 32.3245C77.5309 32.7149 77.352 33.1229 77.2023 33.5152C76.9021 34.3027 76.7392 35.0525 76.6253 35.7123C76.5143 36.3734 76.4541 36.9488 76.4093 37.4189C76.37 37.8867 76.3396 38.2515 76.3184 38.5034C76.3085 38.6243 76.3008 38.7181 76.2954 38.7856C76.289 38.8499 76.2836 38.8822 76.2836 38.8822Z" fill="#263238"/>
<path d="M78.3078 40.0519L72.4496 40.4304C72.2067 40.4461 71.9971 40.2621 71.9814 40.0192C71.9657 39.7763 72.1497 39.5667 72.3926 39.5511L78.2508 39.1725C78.4937 39.1568 78.7033 39.3408 78.719 39.5837C78.7347 39.8266 78.5507 40.0362 78.3078 40.0519Z" fill="#263238"/>
<path d="M78.3338 40.4362L72.4756 40.8148C72.2327 40.8305 72.0487 41.0401 72.0644 41.283C72.0801 41.5258 72.2897 41.7098 72.5326 41.6942L73.1754 41.6526L74.1335 43.2212C74.2433 43.4007 74.4433 43.5044 74.6529 43.491L76.7463 43.3556C76.9582 43.3418 77.1447 43.2106 77.2292 43.0158L77.9537 41.3438L78.3908 41.3156C78.6337 41.2999 78.8177 41.0903 78.802 40.8474C78.786 40.6046 78.5767 40.4206 78.3338 40.4362Z" fill="#263238"/>
<g opacity="0.2">
<path d="M69.3425 25.3372C69.8347 24.82 70.3614 24.4453 70.8347 24.2002C71.3079 23.9538 71.7195 23.8226 72.0119 23.774C72.3047 23.7244 72.474 23.742 72.4923 23.8031C72.5351 23.9423 71.9585 24.19 71.1979 24.7724C70.4395 25.3432 69.5057 26.3167 68.9899 27.6405C68.4779 28.966 68.5108 30.3148 68.6859 31.2479C68.8548 32.1912 69.1137 32.7624 68.9879 32.8364C68.9332 32.869 68.7963 32.7679 68.6135 32.534C68.4305 32.3007 68.2148 31.9266 68.0318 31.4255C67.8478 30.9253 67.7115 30.2936 67.6967 29.5797C67.6807 28.8674 67.7985 28.0728 68.0961 27.294" fill="white"/>
</g>
<g opacity="0.2">
<path d="M74.3872 24.0175C73.8934 24.0447 73.4493 23.9381 73.3821 23.6799C73.352 23.5519 73.4342 23.4079 73.6054 23.2885C73.7757 23.1695 74.0352 23.0783 74.3302 23.0607C74.6253 23.0434 74.8938 23.1029 75.0768 23.2008C75.2611 23.2991 75.36 23.4322 75.3453 23.5631" fill="white"/>
</g>
<path d="M77.1292 43.1619C77.1231 43.177 76.9714 43.119 76.7186 43.064C76.4664 43.0083 76.109 42.967 75.7167 43.0029C75.3247 43.0403 74.981 43.1475 74.7436 43.249C74.5055 43.3501 74.3672 43.4349 74.3586 43.4214C74.3525 43.4131 74.4786 43.3069 74.7154 43.1872C74.9509 43.0672 75.3032 42.9459 75.708 42.9072C76.1128 42.8701 76.4815 42.9238 76.7352 42.9978C76.99 43.0717 77.1336 43.1526 77.1292 43.1619Z" fill="#455A64"/>
<path d="M77.9662 41.3626C77.9678 41.3889 76.9102 41.4788 75.604 41.5633C74.2974 41.6478 73.237 41.6948 73.2354 41.6682C73.2338 41.642 74.291 41.5521 75.5979 41.4676C76.9042 41.3831 77.9646 41.3361 77.9662 41.3626Z" fill="#455A64"/>
<path d="M77.6454 42.0817C77.647 42.0945 77.4282 42.1323 77.0723 42.1777C76.7165 42.2232 76.224 42.2757 75.6784 42.3189C75.1328 42.3617 74.6378 42.3873 74.2794 42.3979C73.921 42.4088 73.6989 42.4059 73.6982 42.3928C73.6976 42.3793 73.9184 42.3582 74.2755 42.3301C74.6614 42.3006 75.1405 42.2638 75.6707 42.2232C76.2003 42.1803 76.6794 42.1416 77.065 42.1102C77.4224 42.082 77.6438 42.0683 77.6454 42.0817Z" fill="#455A64"/>
<path d="M35.4551 81.2728L36.7271 83.3109C36.7271 83.3109 42.1546 78.3163 47.5389 79.7282C47.5389 79.7282 42.7002 75.6251 35.4551 81.2728Z" fill="#77A8AF"/>
<path d="M47.54 79.728C47.54 79.728 51.524 75.402 57.3656 76.3888L58.9586 76.6288L58.4498 75.7085C58.4498 75.7085 48.2901 72.2288 47.54 79.728Z" fill="#77A8AF"/>
<path d="M39.1314 65.1401C39.1314 65.1401 31.1512 63.7673 25.917 66.599L34.228 82.247C34.228 82.247 41.0309 75.6896 47.5407 79.7276L39.1314 65.1401Z" fill="#F5F5F5"/>
<path d="M39.1304 65.1406C39.1313 65.139 39.1457 65.1605 39.1729 65.2043C39.2027 65.2536 39.2421 65.3182 39.2926 65.4014C39.4001 65.5832 39.5537 65.843 39.7525 66.179C40.1557 66.8696 40.7409 67.8715 41.4824 69.1413C42.9691 71.7051 45.0817 75.349 47.6008 79.693C47.6203 79.7266 47.6088 79.7698 47.5752 79.789C47.5521 79.8024 47.524 79.8008 47.5025 79.7877C46.5998 79.2334 45.5627 78.813 44.443 78.6133C43.882 78.5211 43.3041 78.4821 42.7182 78.4936C42.1326 78.5173 41.5409 78.5912 40.9512 78.716C38.5941 79.2389 36.3041 80.5189 34.3502 82.2408L34.2817 82.3045C34.2501 82.3349 34.1998 82.3339 34.1694 82.3026C34.1646 82.2974 34.1595 82.2904 34.1563 82.2846C31.0689 76.4606 28.2075 71.0626 25.8577 66.6302C25.8405 66.5992 25.8517 66.5602 25.8827 66.5429L25.8843 66.5419C27.7144 65.5957 29.5713 65.1854 31.2037 64.9675C32.8433 64.756 34.2833 64.749 35.4603 64.7826C36.6382 64.8216 37.5573 64.9163 38.1803 64.9931C38.492 65.0309 38.7297 65.0674 38.8894 65.0939C38.9653 65.1074 39.0245 65.1179 39.0705 65.1262C39.1118 65.1342 39.1313 65.139 39.1304 65.1406C39.1294 65.1419 39.1077 65.14 39.0677 65.1355C39.0216 65.1298 38.9624 65.1227 38.8865 65.1134C38.7262 65.0936 38.4878 65.0635 38.1758 65.0318C37.5521 64.9675 36.6341 64.8853 35.4584 64.8574C34.284 64.8354 32.8485 64.8526 31.2177 65.0725C29.5947 65.2981 27.7518 65.7157 25.947 66.6568L25.9736 66.5688C28.3301 70.9973 31.2005 76.3909 34.2971 82.2101L34.1717 82.1902L34.2427 82.124C35.2277 81.2418 36.3048 80.5022 37.4245 79.8917C38.5464 79.2866 39.7224 78.8235 40.9185 78.5656C41.5169 78.4398 42.1179 78.3656 42.7134 78.3426C43.3092 78.3317 43.8971 78.3723 44.468 78.4674C45.6075 78.6728 46.6619 79.1035 47.5761 79.6683L47.4779 79.7634C44.9864 75.4158 42.8965 71.7694 41.4261 69.2034C40.6971 67.9224 40.1217 66.9112 39.7253 66.2142C39.5323 65.8712 39.3832 65.6056 39.2789 65.4197C39.2312 65.3326 39.1941 65.2648 39.1659 65.2133C39.1413 65.1666 39.1291 65.1422 39.1304 65.1406Z" fill="#263238"/>
<path d="M51.6757 61.929C51.6757 61.929 45.6392 58.0816 39.2344 65.1399L47.6437 79.7271C47.6437 79.7271 49.3598 73.8064 59.3992 75.8656L51.6757 61.929Z" fill="#F5F5F5"/>
<path d="M51.6749 61.9294C51.6762 61.9282 51.6896 61.9486 51.7149 61.9906C51.7427 62.0379 51.7789 62.0997 51.8256 62.1794C51.9248 62.3535 52.0662 62.6015 52.249 62.9221C52.6198 63.5819 53.1574 64.5384 53.8387 65.7506C55.2032 68.1982 57.1434 71.6779 59.4595 75.8322C59.4784 75.8658 59.4662 75.9083 59.4326 75.9272C59.4182 75.9352 59.4022 75.9378 59.3872 75.9352L59.3843 75.9346C58.8954 75.8543 58.3971 75.7723 57.8896 75.6888C57.6368 75.6379 57.3779 75.6238 57.1174 75.603C56.857 75.5822 56.5942 75.5614 56.3296 75.5403C56.065 75.5093 55.7974 75.5157 55.528 75.5208C55.2586 75.5243 54.9872 75.5275 54.7136 75.5311C54.4403 75.5375 54.1683 75.5867 53.8928 75.6123C53.6182 75.6472 53.3382 75.6619 53.0675 75.7368C52.7942 75.7986 52.5194 75.8607 52.2426 75.9234C51.975 76.0168 51.7062 76.1109 51.4358 76.2056C51.1651 76.2994 50.9162 76.4485 50.6528 76.5678C50.5194 76.6254 50.3971 76.7032 50.2762 76.7838L49.9082 77.0197C49.6656 77.1816 49.4483 77.381 49.2192 77.5653C49.0176 77.7794 48.7904 77.9727 48.6141 78.213C48.2368 78.6674 47.9146 79.1912 47.7194 79.749L47.7178 79.7531C47.7034 79.7944 47.6579 79.8162 47.6166 79.8018C47.5981 79.7954 47.5834 79.7822 47.5741 79.7666C47.4669 79.581 47.351 79.38 47.2352 79.1784C44.2618 74.0114 41.4912 69.1963 39.176 65.173C39.161 65.1474 39.1654 65.1154 39.1843 65.0946C40.6064 63.5439 42.1757 62.3605 43.7398 61.6696C45.3005 60.9615 46.823 60.7851 48.0368 60.8632C49.2586 60.9387 50.1843 61.2363 50.7856 61.4792C51.088 61.6011 51.3101 61.7157 51.4579 61.7954C51.5267 61.8357 51.5808 61.867 51.6227 61.8914C51.6589 61.916 51.6762 61.9282 51.6749 61.9294C51.6736 61.9307 51.6538 61.9208 51.617 61.901C51.5741 61.8789 51.519 61.8507 51.4483 61.8146C51.2979 61.741 51.0736 61.6331 50.7706 61.5179C50.1674 61.2882 49.2442 61.0053 48.0323 60.9416C46.8282 60.8757 45.3242 61.0606 43.7837 61.7701C42.2397 62.4622 40.6899 63.6408 39.2829 65.1855L39.2912 65.1071C41.6128 69.1269 44.3907 73.9375 47.3722 79.1C47.4883 79.3013 47.6042 79.5023 47.711 79.6882L47.5661 79.7058C47.775 79.1086 48.1027 78.5835 48.4909 78.1138C48.6723 77.8674 48.9043 77.6693 49.1117 77.4501C49.3459 77.2613 49.5693 77.0574 49.8173 76.892L50.1936 76.6514C50.3178 76.5691 50.4429 76.4901 50.5786 76.4312C50.847 76.3093 51.1018 76.1576 51.3776 76.0626C51.6531 75.9666 51.927 75.8712 52.1994 75.7765C52.4803 75.7131 52.7597 75.6504 53.0371 75.588C53.3126 75.5122 53.5958 75.4978 53.8739 75.4629C54.153 75.437 54.4288 75.388 54.705 75.3819C54.9811 75.3791 55.2554 75.3759 55.5277 75.373C55.8 75.3682 56.0701 75.3624 56.3366 75.3941C56.6035 75.4158 56.8682 75.4376 57.1309 75.4591C57.3933 75.4805 57.6547 75.4959 57.9085 75.5474C58.4189 75.6325 58.9203 75.7163 59.4118 75.7986L59.3366 75.901C57.0448 71.7403 55.1248 68.2552 53.7744 65.8037C53.1066 64.5816 52.5798 63.6171 52.2163 62.9522C52.0406 62.6258 51.9043 62.3726 51.809 62.1954C51.7658 62.1128 51.7322 62.0485 51.7062 61.9992C51.6845 61.9541 51.6736 61.9307 51.6749 61.9294Z" fill="#263238"/>
<path d="M28.165 59.0774L37.1647 76.4057C37.1647 76.4057 44.479 76.0857 47.5746 79.6502L39.2342 65.1401C39.2342 65.1401 34.3433 59.0774 28.165 59.0774Z" fill="#F5F5F5"/>
<path d="M28.1643 59.0772C28.1643 59.0772 28.2385 59.0785 28.3924 59.0845C28.5559 59.0913 28.7873 59.1005 29.0862 59.113C29.1626 59.1175 29.2449 59.1185 29.3294 59.1274C29.4129 59.1412 29.5006 59.1556 29.5921 59.1706C29.7764 59.2013 29.977 59.2346 30.1937 59.2708C30.4132 59.297 30.6388 59.3706 30.883 59.4352C31.1246 59.5088 31.3908 59.5585 31.6548 59.6637C33.8055 60.3796 36.69 62.1143 39.2836 65.0993L39.2884 65.1057L39.2894 65.1076C41.6641 69.2305 44.5386 74.2218 47.6423 79.6103C47.6641 79.6484 47.6513 79.6967 47.6132 79.7188C47.5815 79.737 47.5425 79.7309 47.5178 79.7063L47.5137 79.7021C47.4023 79.5914 47.2817 79.4714 47.1607 79.3511C46.4913 78.7021 45.699 78.1901 44.857 77.8285C44.0196 77.4586 43.1546 77.1725 42.2826 76.985C40.5431 76.5943 38.8071 76.4471 37.1671 76.4797H37.1652C37.1361 76.4804 37.1105 76.4641 37.098 76.4397C34.4743 71.3521 32.233 67.0058 30.6443 63.9245C29.8606 62.3978 29.2379 61.1847 28.8078 60.3466C28.5988 59.9377 28.4369 59.6202 28.3239 59.3991C28.2721 59.2964 28.2321 59.2167 28.202 59.1569C28.1751 59.1031 28.1623 59.0762 28.1643 59.0772C28.1662 59.0781 28.1825 59.1076 28.2129 59.1636C28.2459 59.225 28.2894 59.3066 28.3457 59.4119C28.4638 59.6356 28.633 59.9559 28.851 60.3693C29.2916 61.2077 29.9294 62.4215 30.7323 63.9495C32.3319 67.0077 34.5886 71.3217 37.2302 76.3713L37.161 76.3313C38.8199 76.2951 40.5604 76.4404 42.3179 76.8327C43.1979 77.0209 44.0727 77.3092 44.9226 77.6842C45.7764 78.0506 46.5857 78.5716 47.2724 79.2375C47.3962 79.361 47.5201 79.4842 47.6343 79.5978L47.5054 79.6893C44.411 74.2954 41.5447 69.2993 39.177 65.1725L39.1828 65.1809C37.9159 63.6916 36.5348 62.5252 35.2436 61.6164C33.9403 60.7207 32.7006 60.098 31.6311 59.7338C31.3694 59.6266 31.1057 59.5748 30.8663 59.4986C30.6244 59.4314 30.4004 59.3553 30.1828 59.3265C29.9678 59.2874 29.7684 59.2513 29.5857 59.218C29.4945 59.2013 29.4075 59.1853 29.3246 59.1703C29.242 59.1601 29.1636 59.1578 29.0897 59.1514C28.5399 59.1076 28.2846 59.0868 28.1643 59.0772Z" fill="#263238"/>
<path d="M56.2574 108.224L56.4507 108.544C56.6677 108.905 56.9832 109.196 57.3601 109.382L57.6961 109.548L57.3749 109.741C57.0145 109.958 56.7237 110.274 56.5374 110.651L56.3713 110.987L56.1781 110.666C55.9611 110.305 55.6456 110.015 55.2686 109.828L54.9326 109.662L55.2536 109.469C55.6139 109.252 55.9048 108.936 56.091 108.56L56.2574 108.224Z" fill="white" fill-opacity="0.16"/>
<path d="M38.5143 42.2183L38.7075 42.5393C38.9245 42.8996 39.24 43.1905 39.617 43.3767L39.953 43.5428L39.632 43.7361C39.2717 43.953 38.9808 44.2686 38.7943 44.6455L38.6282 44.9815L38.4349 44.6606C38.2179 44.3002 37.9024 44.0094 37.5255 43.8231L37.1895 43.657L37.5107 43.4638C37.8711 43.2468 38.1619 42.9313 38.3482 42.5543L38.5143 42.2183Z" fill="white" fill-opacity="0.16"/>
<path d="M120.622 53.6074L120.815 53.9286C121.032 54.289 121.347 54.5798 121.724 54.7661L122.06 54.9322L121.739 55.1254C121.379 55.3424 121.088 55.6579 120.902 56.0349L120.736 56.3709L120.542 56.0499C120.325 55.6896 120.01 55.3987 119.633 55.2125L119.297 55.0464L119.618 54.8531C119.978 54.6362 120.269 54.3206 120.455 53.9437L120.622 53.6074Z" fill="white" fill-opacity="0.16"/>
<path d="M110.927 112.37L111.12 112.691C111.337 113.051 111.653 113.342 112.03 113.529L112.366 113.695L112.045 113.888C111.684 114.105 111.394 114.42 111.207 114.797L111.041 115.133L110.848 114.812C110.631 114.452 110.315 114.161 109.939 113.975L109.603 113.809L109.924 113.615C110.284 113.398 110.575 113.083 110.761 112.706L110.927 112.37Z" fill="white" fill-opacity="0.16"/>
<path d="M112.771 124.718L112.864 124.755C112.967 124.797 113.081 124.808 113.191 124.787L113.289 124.769L113.252 124.861C113.21 124.965 113.199 125.079 113.22 125.189L113.238 125.287L113.146 125.25C113.042 125.208 112.928 125.197 112.819 125.218L112.721 125.236L112.758 125.144C112.8 125.04 112.811 124.926 112.79 124.816L112.771 124.718Z" fill="white" fill-opacity="0.16"/>
<path d="M118.356 41.2198L118.449 41.257C118.552 41.2989 118.666 41.3098 118.776 41.289L118.874 41.2704L118.837 41.3629C118.795 41.4666 118.784 41.5805 118.805 41.6902L118.823 41.7882L118.731 41.751C118.627 41.7091 118.513 41.6982 118.404 41.719L118.306 41.7376L118.343 41.6451C118.384 41.5411 118.396 41.4278 118.375 41.3178L118.356 41.2198Z" fill="white" fill-opacity="0.16"/>
<path d="M42.1238 33.5964L42.2163 33.6335C42.32 33.6751 42.4336 33.6863 42.5436 33.6655L42.6416 33.6469L42.6044 33.7394C42.5628 33.8431 42.5516 33.957 42.5724 34.0668L42.591 34.1647L42.4985 34.1276C42.3945 34.0857 42.2809 34.0748 42.1712 34.0956L42.0732 34.1141L42.1104 34.0217C42.1523 33.918 42.1632 33.8044 42.1424 33.6943L42.1238 33.5964Z" fill="white" fill-opacity="0.16"/>
<path d="M51.532 98.611L51.6245 98.6481C51.7282 98.6897 51.8421 98.7009 51.9518 98.6801L52.0498 98.6616L52.0126 98.7541C51.9707 98.8577 51.9598 98.9717 51.9806 99.0814L51.9992 99.1793L51.9067 99.1422C51.803 99.1003 51.6891 99.0894 51.5794 99.1102L51.4814 99.1288L51.5186 99.0363C51.5602 98.9326 51.5714 98.819 51.5506 98.7089L51.532 98.611Z" fill="white" fill-opacity="0.16"/>
<path d="M61.7315 123.741C61.7315 123.741 61.7037 123.774 61.6442 123.835C61.5798 123.898 61.4918 123.986 61.3782 124.099C61.1373 124.333 60.7901 124.671 60.3443 125.106C59.4365 125.981 58.1286 127.243 56.5085 128.805L56.5235 128.768C56.7059 132.783 56.9536 138.24 57.2294 144.309L57.2358 144.447L57.1213 144.37C56.6813 144.076 56.2106 143.762 55.7363 143.444C52.5766 141.329 49.5859 139.327 46.9539 137.565L46.936 137.553L46.9293 137.533C45.6189 133.619 44.5136 130.319 43.7334 127.989C43.3504 126.831 43.047 125.915 42.8374 125.281C42.7373 124.971 42.6595 124.731 42.6051 124.562C42.5811 124.484 42.5622 124.424 42.5478 124.377C42.5354 124.335 42.5299 124.313 42.5315 124.313C42.5331 124.312 42.5418 124.332 42.5574 124.373C42.5744 124.419 42.5962 124.479 42.6243 124.555C42.6832 124.723 42.767 124.961 42.8752 125.268C43.0925 125.899 43.407 126.812 43.8045 127.965C44.5962 130.291 45.7181 133.586 47.048 137.493L47.0234 137.461C49.6576 139.219 52.6512 141.218 55.8134 143.329C56.2877 143.646 56.7584 143.961 57.1984 144.255L57.0902 144.316C56.8304 138.246 56.5965 132.788 56.4246 128.772L56.4237 128.75L56.44 128.734C58.0733 127.185 59.3914 125.935 60.3066 125.067C60.76 124.641 61.1136 124.309 61.3587 124.079C61.4765 123.97 61.5677 123.886 61.6342 123.825C61.697 123.767 61.7315 123.741 61.7315 123.741Z" fill="white" fill-opacity="0.16"/>
<path d="M57.6422 142.482L57.6144 143.388L58.345 143.925L57.4746 144.178L57.1898 145.039L56.68 144.289L55.7734 144.284L56.3286 143.568L56.0531 142.704L56.9062 143.011L57.6422 142.482Z" fill="white" fill-opacity="0.16"/>
<path d="M47.0641 136.334L47.0817 136.92L47.5748 137.238L47.0225 137.436L46.8724 138.003L46.5133 137.539L45.9277 137.572L46.258 137.087L46.0461 136.54L46.6093 136.704L47.0641 136.334Z" fill="white" fill-opacity="0.16"/>
<path d="M42.505 123.236L42.9476 123.804L43.6663 123.762L43.2628 124.358L43.5252 125.029L42.8334 124.829L42.2769 125.286L42.2529 124.566L41.6465 124.178L42.3233 123.933L42.505 123.236Z" fill="white" fill-opacity="0.16"/>
<path d="M61.2895 122.668L61.7318 123.236L62.4505 123.194L62.047 123.79L62.3094 124.461L61.6175 124.261L61.0611 124.718L61.0371 123.998L60.4307 123.61L61.1075 123.365L61.2895 122.668Z" fill="white" fill-opacity="0.16"/>
<path d="M56.3574 128.155L56.64 128.518L57.0985 128.491L56.8409 128.871L57.0086 129.299L56.567 129.172L56.2118 129.463L56.1965 129.004L55.8096 128.756L56.2416 128.6L56.3574 128.155Z" fill="white" fill-opacity="0.16"/>
<path d="M39.4215 103.954C42.9464 103.954 45.8039 101.096 45.8039 97.5716C45.8039 94.0466 42.9464 91.1891 39.4215 91.1891C35.8966 91.1891 33.0391 94.0466 33.0391 97.5716C33.0391 101.096 35.8966 103.954 39.4215 103.954Z" fill="#77A8AF"/>
<g opacity="0.3">
<path d="M38.5917 99.564C38.5917 100.139 38.1258 100.605 37.5507 100.605C36.9757 100.605 36.5098 100.139 36.5098 99.564C36.5098 98.9893 36.9757 98.523 37.5507 98.523C38.1258 98.523 38.5917 98.9889 38.5917 99.564Z" fill="white"/>
</g>
<g opacity="0.3">
<path d="M37.1162 96.5592C37.1162 96.8936 36.8451 97.1647 36.5107 97.1647C36.1763 97.1647 35.9053 96.8936 35.9053 96.5592C35.9053 96.2248 36.1763 95.9538 36.5107 95.9538C36.8451 95.9538 37.1162 96.2248 37.1162 96.5592Z" fill="white"/>
</g>
<path d="M33.2295 99.1238C33.2579 99.2345 27.7671 104.503 29.1824 105.626C30.5978 106.748 36.552 103.868 41.6275 99.7689C46.7031 95.6694 51.3395 90.6912 50.0707 89.3734C48.8019 88.0556 42.4586 91.9571 42.4586 91.9571L43.2167 92.4403C43.2167 92.4403 47.0519 89.9798 48.265 90.9347C49.4781 91.8899 46.0199 95.6198 41.1395 99.1827C36.2592 102.746 31.5434 105.246 30.8115 104.27C30.0794 103.294 33.5338 100.038 33.5338 100.038L33.2295 99.1238Z" fill="#77A8AF"/>
<g opacity="0.3">
<path d="M33.2295 99.1238C33.2579 99.2345 27.7671 104.503 29.1824 105.626C30.5978 106.748 36.552 103.868 41.6275 99.7689C46.7031 95.6694 51.3395 90.6912 50.0707 89.3734C48.8019 88.0556 42.4586 91.9571 42.4586 91.9571L43.2167 92.4403C43.2167 92.4403 47.0519 89.9798 48.265 90.9347C49.4781 91.8899 46.0199 95.6198 41.1395 99.1827C36.2592 102.746 31.5434 105.246 30.8115 104.27C30.0794 103.294 33.5338 100.038 33.5338 100.038L33.2295 99.1238Z" fill="black"/>
</g>
<g opacity="0.3">
<path d="M35.9056 93.0762C35.9571 93.1377 35.5245 93.505 35.0349 94.242C34.545 94.9678 34.0326 96.1169 34.0045 97.4497C33.9795 98.7831 34.4458 99.9521 34.9062 100.697C35.3661 101.453 35.7837 101.837 35.7296 101.896C35.6973 101.941 35.1843 101.645 34.6166 100.892C34.3341 100.518 34.0525 100.028 33.8416 99.4395C33.6301 98.8529 33.4995 98.1659 33.5104 97.4398C33.5286 96.7143 33.6864 96.0334 33.921 95.4555C34.1552 94.8763 34.456 94.3972 34.7533 94.035C35.3504 93.3063 35.8749 93.0305 35.9056 93.0762Z" fill="white"/>
</g>
<path d="M113.392 41.5892C115.491 39.5775 115.562 36.2448 113.55 34.1456C111.539 32.0463 108.206 31.9753 106.107 33.9871C104.007 35.9989 103.937 39.3315 105.948 41.4308C107.96 43.53 111.293 43.601 113.392 41.5892Z" fill="#77A8AF"/>
<g opacity="0.4">
<path d="M111.464 35.7757C111.475 35.3015 111.869 34.9264 112.343 34.9376C112.817 34.9488 113.192 35.3424 113.181 35.8163C113.17 36.2903 112.776 36.6656 112.302 36.6544C111.828 36.6432 111.453 36.2496 111.464 35.7757Z" fill="black"/>
</g>
<g opacity="0.4">
<path d="M113.182 37.7804C113.188 37.5045 113.417 37.2863 113.693 37.2927C113.969 37.2991 114.187 37.5282 114.18 37.804C114.174 38.0799 113.945 38.2981 113.669 38.2914C113.394 38.285 113.175 38.0562 113.182 37.7804Z" fill="black"/>
</g>
<g opacity="0.4">
<path d="M112.512 39.3139C112.614 39.3165 112.694 39.4007 112.692 39.5024C112.689 39.6042 112.605 39.6845 112.503 39.6823C112.401 39.6797 112.321 39.5955 112.323 39.4938C112.326 39.392 112.41 39.3117 112.512 39.3139Z" fill="black"/>
</g>
</svg>
