<svg width="34" height="34" viewBox="0 0 34 34" fill="none" xmlns="http://www.w3.org/2000/svg">
<circle cx="17" cy="17" r="16.5" fill="#0052B3" stroke="white"/>
<path opacity="0.16" d="M10.3333 22.0001C10.3333 21.116 10.6844 20.2682 11.3096 19.6431C11.9347 19.0179 12.7825 18.6667 13.6666 18.6667H20.3333C21.2173 18.6667 22.0652 19.0179 22.6903 19.6431C23.3154 20.2682 23.6666 21.116 23.6666 22.0001C23.6666 22.4421 23.491 22.866 23.1784 23.1786C22.8659 23.4912 22.4419 23.6667 21.9999 23.6667H11.9999C11.5579 23.6667 11.134 23.4912 10.8214 23.1786C10.5088 22.866 10.3333 22.4421 10.3333 22.0001Z" fill="white"/>
<path d="M10.3333 22.0001C10.3333 21.116 10.6844 20.2682 11.3096 19.6431C11.9347 19.0179 12.7825 18.6667 13.6666 18.6667H20.3333C21.2173 18.6667 22.0652 19.0179 22.6903 19.6431C23.3154 20.2682 23.6666 21.116 23.6666 22.0001C23.6666 22.4421 23.491 22.866 23.1784 23.1786C22.8659 23.4912 22.4419 23.6667 21.9999 23.6667H11.9999C11.5579 23.6667 11.134 23.4912 10.8214 23.1786C10.5088 22.866 10.3333 22.4421 10.3333 22.0001Z" stroke="white" stroke-width="1.5" stroke-linejoin="round"/>
<path d="M16.9999 15.3335C18.3806 15.3335 19.4999 14.2142 19.4999 12.8335C19.4999 11.4528 18.3806 10.3335 16.9999 10.3335C15.6192 10.3335 14.4999 11.4528 14.4999 12.8335C14.4999 14.2142 15.6192 15.3335 16.9999 15.3335Z" stroke="white" stroke-width="1.5"/>
</svg>
